<?xml version="1.0" encoding="utf-8"?>
<!-- Generator: Adobe Illustrator 25.2.1, SVG Export Plug-In . SVG Version: 6.00 Build 0)  -->
<svg version="1.1" id="Layer_1" xmlns="http://www.w3.org/2000/svg" xmlns:xlink="http://www.w3.org/1999/xlink" x="0px" y="0px"
	 viewBox="0 0 300 100" style="enable-background:new 0 0 300 100;" xml:space="preserve">
<style type="text/css">
	.st0{clip-path:url(#SVGID_2_);fill:#165ECC;}
	.st1{clip-path:url(#SVGID_4_);fill:#48CC8C;}
	.st2{clip-path:url(#SVGID_6_);fill:#FFC400;}
	.st3{clip-path:url(#SVGID_8_);fill:#FFC400;}
	.st4{clip-path:url(#SVGID_10_);fill:#FFC400;}
	.st5{clip-path:url(#SVGID_12_);fill:#0065FF;}
	.st6{clip-path:url(#SVGID_14_);fill:#0065FF;}
	.st7{clip-path:url(#SVGID_16_);fill:#0065FF;}
	.st8{clip-path:url(#SVGID_18_);fill:#48CC8C;}
	.st9{clip-path:url(#SVGID_20_);fill:#165ECC;}
	.st10{clip-path:url(#SVGID_22_);fill:#FFC400;}
	.st11{clip-path:url(#SVGID_24_);fill:#165ECC;}
	.st12{clip-path:url(#SVGID_26_);fill:#48CC8C;}
	.st13{clip-path:url(#SVGID_28_);fill:#0065FF;}
	.st14{clip-path:url(#SVGID_30_);fill:#FCC81D;}
	.st15{clip-path:url(#SVGID_32_);fill:#48CC8C;}
	.st16{clip-path:url(#SVGID_34_);fill:#0065FF;}
	.st17{clip-path:url(#SVGID_36_);fill:#0065FF;}
	.st18{clip-path:url(#SVGID_38_);}
	.st19{clip-path:url(#SVGID_40_);}
	.st20{fill:url(#SVGID_41_);}
	.st21{fill:none;}
	.st22{fill:#344563;}
	.st23{fill:url(#SVGID_42_);}
	.st24{fill:url(#SVGID_43_);}
	.st25{opacity:0.1;fill:#091E42;enable-background:new    ;}
	.st26{fill:#0052CC;}
	.st27{fill:#0065FF;}
	.st28{fill:url(#SVGID_44_);}
	.st29{fill:#EBECF0;}
</style>
<g>
	<g>
		<g>
			<defs>
				<rect id="SVGID_1_" width="300" height="100"/>
			</defs>
			<clipPath id="SVGID_2_">
				<use xlink:href="#SVGID_1_"  style="overflow:visible;"/>
			</clipPath>
			<path class="st0" d="M221.6,45.6l-1.5,1.4l2.5,2.3l1.5-1.4L221.6,45.6z"/>
		</g>
	</g>
	<g>
		<g>
			<defs>
				<rect id="SVGID_3_" width="300" height="100"/>
			</defs>
			<clipPath id="SVGID_4_">
				<use xlink:href="#SVGID_3_"  style="overflow:visible;"/>
			</clipPath>
			<path class="st1" d="M235.4,21.8l-1.5,1.4l2.5,2.3l1.5-1.4L235.4,21.8z"/>
		</g>
	</g>
	<g>
		<g>
			<defs>
				<rect id="SVGID_5_" width="300" height="100"/>
			</defs>
			<clipPath id="SVGID_6_">
				<use xlink:href="#SVGID_5_"  style="overflow:visible;"/>
			</clipPath>
			<path class="st2" d="M249,50.9l-1.5-1.4l-2.5,2.3l1.5,1.4L249,50.9z"/>
		</g>
	</g>
	<g>
		<g>
			<defs>
				<rect id="SVGID_7_" width="300" height="100"/>
			</defs>
			<clipPath id="SVGID_8_">
				<use xlink:href="#SVGID_7_"  style="overflow:visible;"/>
			</clipPath>
			<path class="st3" d="M236.7,88.9l-1.5-1.4l-2.5,2.3l1.5,1.4L236.7,88.9z"/>
		</g>
	</g>
	<g>
		<g>
			<defs>
				<rect id="SVGID_9_" width="300" height="100"/>
			</defs>
			<clipPath id="SVGID_10_">
				<use xlink:href="#SVGID_9_"  style="overflow:visible;"/>
			</clipPath>
			<path class="st4" d="M179.5,17.3l-1.5-1.4l-2.5,2.3l1.5,1.4L179.5,17.3z"/>
		</g>
	</g>
	<g>
		<g>
			<defs>
				<rect id="SVGID_11_" width="300" height="100"/>
			</defs>
			<clipPath id="SVGID_12_">
				<use xlink:href="#SVGID_11_"  style="overflow:visible;"/>
			</clipPath>
			<path class="st5" d="M227.8,74.6l0.3-1.9c1.2,0.2,1.8,0,1.9-0.1c0.2-0.2,0-0.8-0.1-1.3c-0.2-0.9-0.5-2,0.5-2.8
				c0.7-0.6,1.5-0.5,2.1-0.4c0.2,0,0.5,0.1,0.6,0c0.1-0.2-0.1-1.2-0.2-1.7c-0.2-1-0.5-2.2,0.5-2.7c0.8-0.4,1.5,0,1.9,0.3
				c0.2,0.1,0.6,0.3,0.7,0.3c0,0,0.4-0.2,0.6-1.8l2,0.2c-0.1,0.7-0.5,3-2.2,3.4c-0.6,0.1-1.2,0-1.7-0.3l0,0c0.3,1.2,0.6,2.7-0.5,3.5
				c-0.7,0.6-1.5,0.5-2.1,0.4c-0.2,0-0.5-0.1-0.5,0s0.1,0.6,0.2,1c0.2,0.9,0.5,2-0.4,2.9C230.8,74.6,229.6,74.8,227.8,74.6z"/>
		</g>
	</g>
	<g>
		<g>
			<defs>
				<rect id="SVGID_13_" width="300" height="100"/>
			</defs>
			<clipPath id="SVGID_14_">
				<use xlink:href="#SVGID_13_"  style="overflow:visible;"/>
			</clipPath>
			<path class="st6" d="M78.3,35.9l-1.4-1.3c0.9-0.8,1-1.3,1-1.5c-0.1-0.2-0.7-0.5-1.2-0.7c-0.8-0.4-2-0.8-2.2-2
				c-0.1-0.9,0.5-1.5,0.8-1.8c0.1-0.1,0.3-0.3,0.3-0.4c-0.1-0.2-1.1-0.6-1.6-0.8c-1-0.4-2.2-0.9-2-2c0.1-0.8,0.9-1.1,1.4-1.3
				c0.2-0.1,0.6-0.2,0.7-0.3c0,0,0-0.4-1.2-1.5l1.3-1.3c0.6,0.5,2.3,2.1,1.7,3.6c-0.2,0.6-0.7,0.9-1.2,1.1l0,0
				c1.2,0.5,2.6,1.1,2.8,2.4c0.1,0.9-0.5,1.4-0.9,1.8c-0.1,0.1-0.3,0.3-0.3,0.4c0.1,0.1,0.6,0.3,1,0.4c0.9,0.4,2,0.8,2.3,2
				C80.1,33.6,79.6,34.7,78.3,35.9z"/>
		</g>
	</g>
	<g>
		<g>
			<defs>
				<rect id="SVGID_15_" width="300" height="100"/>
			</defs>
			<clipPath id="SVGID_16_">
				<use xlink:href="#SVGID_15_"  style="overflow:visible;"/>
			</clipPath>
			<path class="st7" d="M217.8,25.9l-0.1-1.9c1.2-0.1,1.7-0.4,1.8-0.5c0.1-0.2-0.2-0.8-0.4-1.2c-0.4-0.8-1-1.9-0.3-2.8
				c0.5-0.7,1.4-0.8,1.9-0.9c0.2,0,0.5-0.1,0.5-0.1c0.1-0.2-0.4-1.2-0.6-1.6c-0.5-0.9-1-2-0.2-2.7c0.6-0.5,1.4-0.3,2-0.1
				c0.2,0.1,0.6,0.2,0.8,0.2c0,0,0.3-0.3,0.2-1.9l1.9-0.2c0.1,0.7,0.3,3-1.3,3.8c-0.6,0.3-1.2,0.2-1.7,0.1l0,0
				c0.6,1.1,1.2,2.4,0.4,3.5c-0.5,0.7-1.4,0.8-1.9,0.9c-0.2,0-0.5,0.1-0.5,0.1c0,0.1,0.3,0.6,0.4,0.9c0.4,0.8,1,1.9,0.4,2.9
				C220.7,25.2,219.6,25.8,217.8,25.9z"/>
		</g>
	</g>
	<g>
		<g>
			<defs>
				<rect id="SVGID_17_" width="300" height="100"/>
			</defs>
			<clipPath id="SVGID_18_">
				<use xlink:href="#SVGID_17_"  style="overflow:visible;"/>
			</clipPath>
			<path class="st8" d="M66.8,79.8h-2.6v3.6h2.6V79.8z"/>
		</g>
	</g>
	<g>
		<g>
			<defs>
				<rect id="SVGID_19_" width="300" height="100"/>
			</defs>
			<clipPath id="SVGID_20_">
				<use xlink:href="#SVGID_19_"  style="overflow:visible;"/>
			</clipPath>
			<path class="st9" d="M63.2,31.5l-1.5,1.4l2.4,2.3l1.5-1.4L63.2,31.5z"/>
		</g>
	</g>
	<g>
		<g>
			<defs>
				<rect id="SVGID_21_" width="300" height="100"/>
			</defs>
			<clipPath id="SVGID_22_">
				<use xlink:href="#SVGID_21_"  style="overflow:visible;"/>
			</clipPath>
			<path class="st10" d="M55.4,51l-1.5-1.4l-2.4,2.3l1.5,1.4L55.4,51z"/>
		</g>
	</g>
	<g>
		<g>
			<defs>
				<rect id="SVGID_23_" width="300" height="100"/>
			</defs>
			<clipPath id="SVGID_24_">
				<use xlink:href="#SVGID_23_"  style="overflow:visible;"/>
			</clipPath>
			<path class="st11" d="M202.5,13.3l-2.1,0.5l0.8,3.2l2.1-0.5L202.5,13.3z"/>
		</g>
	</g>
	<g>
		<g>
			<defs>
				<rect id="SVGID_25_" width="300" height="100"/>
			</defs>
			<clipPath id="SVGID_26_">
				<use xlink:href="#SVGID_25_"  style="overflow:visible;"/>
			</clipPath>
			<path class="st12" d="M121.8,18.1l-2.4-0.9l-1.4,3.4l2.4,0.9L121.8,18.1z"/>
		</g>
	</g>
	<g>
		<g>
			<defs>
				<rect id="SVGID_27_" width="300" height="100"/>
			</defs>
			<clipPath id="SVGID_28_">
				<use xlink:href="#SVGID_27_"  style="overflow:visible;"/>
			</clipPath>
			<path class="st13" d="M105,9.2l-2-0.8l-1.3,3.1l2,0.8L105,9.2z"/>
		</g>
	</g>
	<g>
		<g>
			<defs>
				<rect id="SVGID_29_" width="300" height="100"/>
			</defs>
			<clipPath id="SVGID_30_">
				<use xlink:href="#SVGID_29_"  style="overflow:visible;"/>
			</clipPath>
			<path class="st14" d="M87.5,13.3L86,14.7l2.4,2.3l1.5-1.4L87.5,13.3z"/>
		</g>
	</g>
	<g>
		<g>
			<defs>
				<rect id="SVGID_31_" width="300" height="100"/>
			</defs>
			<clipPath id="SVGID_32_">
				<use xlink:href="#SVGID_31_"  style="overflow:visible;"/>
			</clipPath>
			<path class="st15" d="M164,8.5h-2.6v3.6h2.6V8.5z"/>
		</g>
	</g>
	<g>
		<g>
			<defs>
				<rect id="SVGID_33_" width="300" height="100"/>
			</defs>
			<clipPath id="SVGID_34_">
				<use xlink:href="#SVGID_33_"  style="overflow:visible;"/>
			</clipPath>
			<path class="st16" d="M76.5,69.6L74.7,69c0.5-1.1,0.4-1.6,0.3-1.7c-0.1-0.2-0.9-0.2-1.3-0.2c-0.9,0-2.2,0-2.8-1
				c-0.4-0.7-0.2-1.5,0-2c0.1-0.2,0.2-0.4,0.2-0.5c-0.2-0.1-1.3-0.1-1.7-0.1c-1.1,0-2.3,0-2.6-1c-0.2-0.8,0.4-1.3,0.8-1.7
				c0.2-0.1,0.5-0.4,0.5-0.6c0,0-0.2-0.4-1.7-0.9l0.7-1.7c0.7,0.3,2.9,1,3,2.6c0,0.6-0.3,1.1-0.6,1.5l0,0c1.3,0,2.8,0,3.5,1.1
				c0.4,0.7,0.1,1.5-0.1,2c-0.1,0.2-0.2,0.4-0.2,0.5c0.1,0,0.7,0,1,0c0.9,0,2.2,0,2.9,0.9C77.1,66.9,77.1,68,76.5,69.6z"/>
		</g>
	</g>
	<g>
		<g>
			<defs>
				<rect id="SVGID_35_" width="300" height="100"/>
			</defs>
			<clipPath id="SVGID_36_">
				<use xlink:href="#SVGID_35_"  style="overflow:visible;"/>
			</clipPath>
			<path class="st17" d="M143.6,15.7l-1-1.6c1.1-0.6,1.4-1,1.4-1.2s-0.6-0.7-1-0.9c-0.7-0.5-1.7-1.3-1.6-2.4
				c0.1-0.9,0.8-1.3,1.3-1.6c0.1-0.1,0.4-0.2,0.4-0.3c-0.1-0.2-0.9-0.9-1.3-1.2C141,5.8,140,5,140.5,4c0.3-0.7,1.2-0.8,1.7-0.9
				c0.2,0,0.7-0.1,0.8-0.2c0,0,0.1-0.4-0.7-1.8l1.7-1c0.4,0.6,1.7,2.6,0.6,3.9c-0.4,0.5-0.9,0.7-1.4,0.8l0,0c1,0.8,2.3,1.7,2,3
				c-0.1,0.9-0.9,1.3-1.3,1.6c-0.2,0.1-0.4,0.2-0.4,0.3c0.1,0.1,0.5,0.4,0.8,0.6c0.7,0.5,1.7,1.3,1.7,2.5
				C145.9,13.9,145.2,14.8,143.6,15.7z"/>
		</g>
	</g>
	<g>
		<g>
			<defs>
				<rect id="SVGID_37_" width="300" height="100"/>
			</defs>
			<clipPath id="SVGID_38_">
				<use xlink:href="#SVGID_37_"  style="overflow:visible;"/>
			</clipPath>
			<g class="st18">
				<g>
					<g>
						<defs>
							<rect id="SVGID_39_" x="91" y="12.7" width="118" height="132.5"/>
						</defs>
						<clipPath id="SVGID_40_">
							<use xlink:href="#SVGID_39_"  style="overflow:visible;"/>
						</clipPath>
						<g class="st19">
							
								<linearGradient id="SVGID_41_" gradientUnits="userSpaceOnUse" x1="-7986.75" y1="-12257.2666" x2="-1494.6405" y2="-3231.3167" gradientTransform="matrix(1 0 0 -1 0 -876)">
								<stop  offset="0.24" style="stop-color:#57D9A3"/>
								<stop  offset="0.74" style="stop-color:#ABF5D1"/>
							</linearGradient>
							<path class="st20" d="M94.7,101.6c3.2,2.1,4.8,1.1,8.2,3.6c3.4,2.5,3.4,7.3,6.9,8c1.1,0.2,1.6-0.3,2.5-0.3l1.3,0.2
								c1.2,0.2,2.4,0.7,3.5,1.3c2.7,1.3,3.9-0.4,5.5,0.7h0.1c-0.7,1.1-1.2,2.3-1.6,3.5c-1.5,4.4-2.4,9.3-0.3,13.3
								c1.2,2.3,3.4,4,5,6.1c0.6,0.8,1.1,1.7,1.6,2.7c6.7,2.8,13.8,4.3,21,4.4c2,0.1,4.1,0,6-0.1c0.5-0.4,1-0.9,1.5-1.4
								c1-1.3,1.3-2.3,2-4.5c0.7-2.1,2.7-7.2,1.1-10.2c-1.5-3-5.1-2-11.7-6.4c-4.7-3-8-7.1-15-11c-0.9-0.5-1.9-0.8-2.9-0.9
								c-0.5,0-1,0-1.5,0.1c-2,0.3-4.3,2.2-6.7,0.9c-2.5-1.3-2.5-4.5-4.8-4.5c-1.3,0.1-2.3,0.7-3.9,0.5c-0.4,0-0.7-0.2-1-0.4
								c-0.3-0.2-0.5-0.6-0.6-0.9c-0.4-1.1,2.2-1.2,2.2-2.4c0.1-2.2,0.5-3.4,1-3.7c2.9-2.3,4.1-1.4,7.8-2.8
								c3.6-1.4,6.6-5.4,8.7-10.5c1-2.5,2.4-5.4,5.1-5.9c0.9-0.2,1.8-0.1,2.7-0.4c2-0.8,2.2-3.2,1.8-5.4c-0.1-0.5,0-1,0.2-1.4
								c0.2-0.4,0.6-0.8,1.1-0.9c1.2-0.4,2.4-0.6,3.7-0.7c0.3,0,0.5-0.1,0.8-0.2c0.2-0.1,0.5-0.3,0.7-0.5c0.2-0.2,0.3-0.5,0.4-0.7
								c0.1-0.3,0.1-0.5,0.1-0.8c-0.3-2-1.1-4-2.4-5.5c-1.3-1.6-3-2.8-5-3.5c-0.9-0.3-1.8-0.5-2.5-1.2c-0.5-0.5-0.8-1.2-1.1-1.8
								c-1.8-3.2-7.5-2.7-8.8,0.7c-0.3,1.1-0.5,2.2-0.4,3.3v6.3c-0.1,1.9-2.6,2.8-3.7,1.1c-0.8-1.2-1.1-2.7-1.9-3.8s-2.3-2-3.6-3
								s-2.2-2.5-1.7-4c0.4-1.5,2.9-2.3,3.9-3.7c1.1-1.5,0.4-5-1.7-6.4c-2-1.4-4.6-1.6-7.1-1.7c-1.5-0.1-3-0.2-4.4-0.2
								c-0.8,0.9-1.6,1.7-2.3,2.7l-0.1,0.1c-0.6,0.8-1.2,1.5-1.8,2.3c-0.3,0.4-0.6,0.8-0.8,1.2c-0.3,0.4-0.6,0.9-0.9,1.4
								s-0.6,1-0.9,1.5c-0.2,0.4-0.4,0.7-0.7,1.1c-0.3,0.6-0.7,1.1-1,1.7c-0.1,0.1-0.1,0.2-0.2,0.3c-0.8,1.5-1.5,3-2.2,4.5
								c-0.1,0.1-0.1,0.3-0.2,0.4c-0.3,0.7-0.6,1.4-0.9,2.2c-0.1,0.2-0.2,0.5-0.3,0.7c-0.3,0.7-0.5,1.5-0.8,2.2
								c-0.1,0.2-0.1,0.4-0.2,0.6c-1.4,4.4-2.2,9.1-2.5,13.9c0,0.1,0,0.2,0,0.3c0,0.9-0.1,1.8-0.1,2.7c0,0.2,0,0.4,0,0.6
								c0,0.8,0,1.6,0.1,2.4c0,0.5,0.1,0.9,0.1,1.4s0.1,1.1,0.1,1.6c0.2,2.3,0.7,5.5,1.2,7.8C92.9,101.1,93.7,101,94.7,101.6z"/>
							<path class="st21" d="M167.9,45c0.5,0.7,0.8,1.5,0.9,2.4c0.5,2.5,1,5.2,0.4,7.7c-1.5,6.2-4.4,8.1-3.4,10.2
								c1.1,2.2,5.8,1.9,7.8,1.8c5-0.4,5.1-2.2,10.8-3.2s7.9,0.3,9.4-2c0.6-0.9,0.6-2.1,1.1-3.1c0.4-0.9,2.8-2.9,4.8-3.8
								c-6.9-10.6-17-18.7-28.8-23.2c-0.7-0.1-1.4-0.1-2,0.1c-1.7,0.5-2.7,2.3-4.3,3.2c-1.6,0.8-2.7,0.5-4,0.9h-0.1
								c-0.4,0.1-0.8,0.4-1,0.7c-0.3,0.3-0.4,0.7-0.5,1.1c-0.1,0.4,0,0.8,0.2,1.2s0.5,0.7,0.8,0.9l6.2,3.8
								C166.8,43.9,167.4,44.4,167.9,45z"/>
							<path class="st21" d="M206.3,84.7c-1.7-2.7-4.9-4.9-7.9-3.9c-1.5,0.4-2.6,1.6-4.1,2.1c-1.3,0.4-2.7,0.4-4,0
								c-1.3-0.5-2.4-1.3-3.1-2.5c-0.3-0.7-0.6-1.3-1.1-1.8c-0.8-0.6-1.8-0.8-2.7-0.8c-3.9-0.2-7.9,0.4-11.6,1.7
								c-0.6,0.2-1.1,0.5-1.6,0.9c-0.7,0.7-0.7,1.9-0.9,2.9c-0.8,3.7-4.2,6.1-6.3,9.3c-2.1,3.2-3,8.1-1.5,11.9
								c0.8,1.9,2.1,3.6,3.9,4.8c1.7,1.2,3.7,1.9,5.8,2c3.8,0,8.1-2,11,0.5s2,4.8,2.6,7.4c0.6,2.7,2.3,5.8,2.9,8.9
								c0.2,1.1,0.3,2.1,0.3,3.2c6-5,10.9-11.2,14.4-18.1c3.6-6.9,5.7-14.5,6.3-22.2C208.2,88.8,207.3,86.7,206.3,84.7z"/>
							<g>
								<path class="st22" d="M150,27.9c-17,0-32.4,7.2-43.1,18.6l-0.2,0.2c1.5,0,3,0.1,4.4,0.2c2.5,0.1,5.1,0.3,7.1,1.7
									s2.7,5,1.7,6.4c-1.1,1.5-3.5,2.3-3.9,3.7c-0.4,1.5,0.5,3,1.7,4s2.7,1.8,3.6,3c0.8,1.1,1.1,2.7,1.9,3.8
									c1.1,1.6,3.6,0.8,3.7-1.1v-6.3c0-1.1,0.1-2.3,0.4-3.3c1.3-3.4,6.9-3.8,8.8-0.7c0.3,0.7,0.6,1.3,1.1,1.8
									c0.6,0.7,1.6,0.9,2.5,1.2c1.9,0.7,3.7,1.9,5,3.5c1.3,1.6,2.2,3.5,2.4,5.5c0,0.3,0,0.5-0.1,0.8s-0.2,0.5-0.4,0.7
									s-0.4,0.4-0.7,0.5c-0.2,0.1-0.5,0.2-0.8,0.2c-1.2,0.1-2.5,0.3-3.7,0.7c-0.5,0.2-0.9,0.5-1.1,0.9c-0.2,0.4-0.3,0.9-0.2,1.4
									c0.4,2.2,0.2,4.7-1.8,5.4c-0.8,0.3-1.8,0.2-2.7,0.4c-2.7,0.5-4.1,3.3-5.1,5.9c-2.1,5.2-5.1,9-8.7,10.3
									c-3.6,1.4-4.4,0.5-6.2,1.6c-0.4,0.3-3.9,1.8-1.1,4.6c0,1.2-4,1.6-3.6,2.7c0.1,0.4,0.3,0.7,0.6,0.9c0.3,0.2,0.6,0.4,1,0.4
									c1.6,0.2,2.5-0.4,3.9-0.5c2.3,0,2.3,3.2,4.8,4.5s4.8-0.6,6.7-0.9c0.5-0.1,1-0.2,1.5-0.1c1,0.1,2,0.4,2.9,0.9
									c7,4,10.3,8,15,11c6.7,4.4,10.2,3.3,11.7,6.4c1.5,3-0.4,8.1-1.1,10.2c-0.7,2.1-1.1,3.2-2,4.5c-0.5,0.5-0.9,1-1.5,1.4
									c-2,0.1-4,0.2-6,0.1c-7.2-0.2-14.3-1.7-21-4.4c-0.4-0.9-1-1.8-1.6-2.7c-1.6-2.1-3.7-3.8-5-6.1c-2.2-4-1.3-9,0.3-13.3
									c0.4-1.2,0.9-2.4,1.6-3.5h-0.1c-1.5-1.1-2.7,0.6-5.5-0.7c-1.1-0.6-2.3-1.1-3.5-1.3l-1.3-0.2c-0.9,0.1-1.4,0.5-2.5,0.3
									c-3.6-0.7-3.6-5.5-6.9-8c-3.4-2.5-5.5-1.9-8.7-4.1c0,0-1.2-0.1-1.9-1.1c2.9,29.7,27,45.1,57.6,45.1c32.6,0,59-26.3,59-58.7
									C209.1,54.2,182.6,27.9,150,27.9z M159.2,38.9c-0.2-0.4-0.2-0.8-0.2-1.2c0.1-0.4,0.2-0.8,0.5-1.1s0.6-0.6,1-0.7h0.1
									c1.3-0.4,2.4-0.1,4-0.9c1.6-0.8,2.5-2.7,4.3-3.2c0.7-0.2,1.4-0.2,2-0.1c11.8,4.5,21.9,12.6,28.8,23.2
									c-2,0.9-4.4,2.9-4.8,3.8c-0.4,0.9-0.5,2.1-1.1,3.1c-1.5,2.3-3.7,1.1-9.4,2c-5.7,0.9-5.8,2.8-10.8,3.2
									c-2,0.1-6.7,0.4-7.8-1.8c-1.1-2.1,1.9-4,3.4-10.2c0.6-2.5,0.1-5.2-0.4-7.7c-0.1-0.8-0.4-1.7-0.9-2.4c-0.5-0.6-1-1.1-1.7-1.4
									l-6.2-3.8C159.6,39.6,159.4,39.3,159.2,38.9z M188.1,131.3c0-1.1-0.1-2.2-0.3-3.2c-0.6-3.1-2.3-6.2-2.9-8.9
									c-0.6-2.7,0.3-5-2.6-7.4c-2.9-2.5-7.2-0.5-11-0.5c-2.1-0.1-4.1-0.8-5.8-2s-3.1-2.9-3.9-4.8c-1.6-3.9-0.6-8.8,1.5-11.9
									c2.1-3.2,5.5-5.6,6.3-9.3c0.2-1,0.2-2.2,0.9-2.9c0.5-0.4,1-0.7,1.6-0.9c3.7-1.3,7.7-1.9,11.6-1.7c1,0,1.9,0.3,2.7,0.8
									c0.5,0.5,0.8,1.2,1.1,1.8c0.7,1.2,1.8,2,3.1,2.5s2.7,0.5,4,0c1.5-0.6,2.6-1.7,4.1-2.1c3-0.9,6.1,1.3,7.8,4
									c1.1,2,1.8,4.2,2.4,6.3c-0.6,7.8-2.5,15.1-6.1,22C199,120.1,194.1,126.3,188.1,131.3z"/>
								<path class="st21" d="M206.3,84.7c-1.7-2.7-4.9-4.9-7.9-3.9c-1.5,0.4-2.6,1.6-4.1,2.1c-1.3,0.4-2.7,0.4-4,0
									c-1.3-0.5-2.4-1.3-3.1-2.5c-0.3-0.7-0.6-1.3-1.1-1.8c-0.8-0.6-1.8-0.8-2.7-0.8c-3.9-0.2-7.9,0.4-11.6,1.7
									c-0.6,0.2-1.1,0.5-1.6,0.9c-0.7,0.7-0.7,1.9-0.9,2.9c-0.8,3.7-4.2,6.1-6.3,9.3c-2.1,3.2-3,8.1-1.5,11.9
									c0.8,1.9,2.1,3.6,3.9,4.8c1.7,1.2,3.7,1.9,5.8,2c3.8,0,8.1-2,11,0.5s2,4.8,2.6,7.4c0.6,2.7,2.3,5.8,2.9,8.9
									c0.2,1.1,0.3,2.1,0.3,3.2c6-5,10.9-11.2,14.4-18.1c3.6-6.9,5.7-14.5,6.3-22.2C208.2,88.8,207.3,86.7,206.3,84.7z"/>
								<path class="st21" d="M167.9,45c0.5,0.7,0.8,1.5,0.9,2.4c0.5,2.5,1,5.2,0.4,7.7c-1.5,6.2-4.4,8.1-3.4,10.2
									c1.1,2.2,5.8,1.9,7.8,1.8c5-0.4,5.1-2.2,10.8-3.2s7.9,0.3,9.4-2c0.6-0.9,0.6-2.1,1.1-3.1c0.4-0.9,2.8-2.9,4.8-3.8
									c-6.9-10.6-17-18.7-28.8-23.2c-0.7-0.1-1.4-0.1-2,0.1c-1.7,0.5-2.7,2.3-4.3,3.2c-1.6,0.8-2.7,0.5-4,0.9h-0.1
									c-0.4,0.1-0.8,0.4-1,0.7c-0.3,0.3-0.4,0.7-0.5,1.1c-0.1,0.4,0,0.8,0.2,1.2s0.5,0.7,0.8,0.9l6.2,3.8
									C166.8,43.9,167.4,44.4,167.9,45z"/>
							</g>
							<path class="st22" d="M92.3,99.1"/>
							<path class="st22" d="M206.3,84.7c-1.7-2.7-4.9-4.9-7.9-3.9c-1.5,0.4-2.6,1.6-4.1,2.1c-1.3,0.4-2.7,0.4-4,0
								c-1.3-0.5-2.4-1.3-3.1-2.5c-0.3-0.7-0.6-1.3-1.1-1.8c-0.8-0.6-1.8-0.8-2.7-0.8c-3.9-0.2-7.9,0.4-11.6,1.7
								c-0.6,0.2-1.1,0.5-1.6,0.9c-0.7,0.7-0.7,1.9-0.9,2.9c-0.8,3.7-4.2,6.1-6.3,9.3c-2.1,3.2-3,8.1-1.5,11.9
								c0.8,1.9,2.1,3.6,3.9,4.8c1.7,1.2,3.7,1.9,5.8,2c3.8,0,8.1-2,11,0.5s2,4.8,2.6,7.4c0.6,2.7,2.3,5.8,2.9,8.9
								c0.2,1.1,0.3,2.1,0.3,3.2c6-5,10.9-11.2,14.4-18.1c3.6-6.9,5.7-14.5,6.3-22.2C208.2,88.8,207.3,86.7,206.3,84.7z"/>
							
								<linearGradient id="SVGID_42_" gradientUnits="userSpaceOnUse" x1="172.381" y1="-999.5089" x2="195.2418" y2="-953.6794" gradientTransform="matrix(1 0 0 -1 0 -876)">
								<stop  offset="0.24" style="stop-color:#57D9A3"/>
								<stop  offset="0.74" style="stop-color:#ABF5D1"/>
							</linearGradient>
							<path class="st23" d="M206.3,84.7c-1.7-2.7-4.9-4.9-7.9-3.9c-1.5,0.4-2.6,1.6-4.1,2.1c-1.3,0.4-2.7,0.4-4,0
								c-1.3-0.5-2.4-1.3-3.1-2.5c-0.3-0.7-0.6-1.3-1.1-1.8c-0.8-0.6-1.8-0.8-2.7-0.8c-3.9-0.2-7.9,0.4-11.6,1.7
								c-0.6,0.2-1.1,0.5-1.6,0.9c-0.7,0.7-0.7,1.9-0.9,2.9c-0.8,3.7-4.2,6.1-6.3,9.3c-2.1,3.2-3,8.1-1.5,11.9
								c0.8,1.9,2.1,3.6,3.9,4.8c1.7,1.2,3.7,1.9,5.8,2c3.8,0,8.1-2,11,0.5s2,4.8,2.6,7.4c0.6,2.7,2.3,5.8,2.9,8.9
								c0.2,1.1,0.3,2.1,0.3,3.2c6-5,10.9-11.2,14.4-18.1c3.6-6.9,6-13.7,6.3-22.1C208.3,89,207.3,86.7,206.3,84.7z"/>
							<path class="st22" d="M167.9,45c0.5,0.7,0.8,1.5,0.9,2.4c0.5,2.5,1,5.2,0.4,7.7c-1.5,6.2-4.4,8.1-3.4,10.2
								c1.1,2.2,5.8,1.9,7.8,1.8c5-0.4,5.1-2.2,10.8-3.2s7.9,0.3,9.4-2c0.6-0.9,0.6-2.1,1.1-3.1c0.4-0.9,2.8-2.9,4.8-3.8
								c-6.9-10.6-17-18.7-28.8-23.2c-0.7-0.1-1.4-0.1-2,0.1c-1.7,0.5-2.7,2.3-4.3,3.2c-1.6,0.8-2.7,0.5-4,0.9h-0.1
								c-0.4,0.1-0.8,0.4-1,0.7c-0.3,0.3-0.4,0.7-0.5,1.1c-0.1,0.4,0,0.8,0.2,1.2s0.5,0.7,0.8,0.9l6.2,3.8
								C166.8,43.9,167.4,44.4,167.9,45z"/>
							
								<linearGradient id="SVGID_43_" gradientUnits="userSpaceOnUse" x1="-144.4185" y1="-1663.0316" x2="622.1005" y2="90.8685" gradientTransform="matrix(1 0 0 -1 0 -876)">
								<stop  offset="0.24" style="stop-color:#57D9A3"/>
								<stop  offset="0.74" style="stop-color:#ABF5D1"/>
							</linearGradient>
							<path class="st24" d="M167.9,45c0.5,0.7,0.8,1.5,0.9,2.4c0.5,2.5,1,5.2,0.4,7.7c-1.5,6.2-4.4,8.1-3.4,10.2
								c1.1,2.2,5.8,1.9,7.8,1.8c5-0.4,5.1-2.2,10.8-3.2s7.9,0.3,9.4-2c0.6-0.9,0.6-2.1,1.1-3.1c0.4-0.9,2.8-2.9,4.9-3.9
								C193,44.1,183,36.1,171.1,31.6c-0.7-0.1-1.7,0-2.3,0.2c-1.7,0.5-2.7,2.3-4.3,3.2c-1.6,0.8-2.7,0.5-4,0.9h-0.1
								c-0.4,0.1-0.8,0.4-1,0.7c-0.3,0.3-0.4,0.7-0.5,1.1c-0.1,0.4,0,0.8,0.2,1.2s0.5,0.7,0.8,0.9l6.2,3.8
								C166.8,43.9,167.4,44.4,167.9,45z"/>
							<path class="st25" d="M109.4,85.7l-5.2-5.2c1.3-1.5,2.1-3.4,2-5.4s-1-3.8-2.4-5.2c-1.5-1.3-3.4-2-5.4-2
								c-2,0.1-3.9,0.9-5.2,2.4l-0.1,0.1c-0.2,0.6-0.3,1.1-0.4,1.7c-0.1,0.1-0.1,0.3-0.1,0.4l-0.4,1.6v0.2c-0.3,1.3-0.5,2.5-0.7,3.8
								c0.4,1,1,2,1.8,2.8c1.3,1.3,3.1,2.1,5,2.2s3.7-0.6,5.2-1.8l5.2,5.2L109.4,85.7z"/>
							<path class="st25" d="M166,30.1L166,30.1l-1.4-0.4h-0.3l-0.9-0.2l-0.6-0.1l-1.1-0.2l-0.5-0.1l-1.1-0.2l-0.4-0.1l-0.9-0.2
								h-0.7l-1.1-0.2l-0.5-0.1l-0.9-0.1H155l-1.1-0.1h-2.1c-2.4,2.7-3.8,6.6-3.8,10.2c0.1,3.6,1.5,7.1,4,9.6
								c2.5,2.6,5.9,4.2,9.5,4.4s7.2-1,10-3.2l9.8,9.2l1.1-1.1L173.1,47c1.5-1.7,2.5-3.8,3-6s0.5-4.5-0.1-6.8l0,0
								C172.9,32.4,169.5,31.1,166,30.1L166,30.1z"/>
							<path class="st25" d="M184.1,79.6c-1-1-2.3-1.7-3.8-2c-1.4-0.3-2.9-0.2-4.2,0.4c-1.3,0.5-2.5,1.4-3.3,2.6s-1.3,2.6-1.4,4
								s0.3,2.9,1,4.1s1.8,2.2,3.1,2.9c1.3,0.6,2.8,0.9,4.2,0.7c1.4-0.2,2.8-0.8,3.9-1.7l5.2,5.1l0.9-0.9l-5.2-5.1
								c1.2-1.4,1.8-3.3,1.7-5.2C186.2,82.7,185.4,80.9,184.1,79.6L184.1,79.6z"/>
							<path class="st26" d="M109,86.8c-0.2,0-0.3-0.1-0.4-0.2s-0.2-0.3-0.2-0.4V71.4c0-0.2,0.1-0.3,0.2-0.4s0.3-0.2,0.4-0.2
								c0.2,0,0.3,0.1,0.4,0.2s0.2,0.3,0.2,0.4v14.8c0,0.2-0.1,0.3-0.2,0.4C109.3,86.7,109.1,86.8,109,86.8L109,86.8z"/>
							<path class="st26" d="M189.3,96c-0.1,0-0.2,0-0.3,0s-0.2-0.1-0.2-0.1c-0.1-0.1-0.1-0.1-0.1-0.2s0-0.2,0-0.3V80.7
								c0-0.1,0-0.2,0-0.3s0.1-0.2,0.1-0.2c0.1-0.1,0.1-0.1,0.2-0.1c0.1,0,0.2,0,0.3,0c0.2,0,0.3,0.1,0.4,0.2
								c0.1,0.1,0.2,0.3,0.2,0.4v14.7c0,0.2-0.1,0.3-0.2,0.4C189.7,96,189.5,96,189.3,96z"/>
							<path class="st27" d="M109,78.8c4.1,0,7.5-3.3,7.5-7.4S113.1,64,109,64s-7.5,3.3-7.5,7.4S104.8,78.8,109,78.8z"/>
							<path class="st27" d="M189.3,88.2c4.1,0,7.5-3.3,7.5-7.4s-3.4-7.4-7.5-7.4s-7.5,3.3-7.5,7.4
								C181.8,84.8,185.2,88.2,189.3,88.2z"/>
							<path class="st26" d="M181.9,58.5c-0.2,0-0.3-0.1-0.4-0.2c-0.1-0.1-0.2-0.3-0.2-0.4V26.1c0-0.2,0.1-0.3,0.2-0.4
								c0.1-0.1,0.3-0.2,0.4-0.2c0.2,0,0.3,0.1,0.4,0.2c0.1,0.1,0.2,0.3,0.2,0.4v31.8c0,0.1,0,0.2,0,0.3s-0.1,0.2-0.1,0.2
								c-0.1,0.1-0.1,0.1-0.2,0.1S182,58.5,181.9,58.5L181.9,58.5z"/>
							
								<linearGradient id="SVGID_44_" gradientUnits="userSpaceOnUse" x1="168.5" y1="-902.1" x2="195.344" y2="-902.1" gradientTransform="matrix(1 0 0 -1 0 -876)">
								<stop  offset="0" style="stop-color:#0052CC"/>
								<stop  offset="1" style="stop-color:#4C9AFF"/>
							</linearGradient>
							<path class="st28" d="M181.9,39.4c7.4,0,13.4-6,13.4-13.3s-6-13.3-13.4-13.3s-13.4,6-13.4,13.3S174.5,39.4,181.9,39.4z"/>
							<path class="st29" d="M179.4,32.7l-5.5-5.4c-0.1-0.1-0.1-0.2-0.1-0.4s0.1-0.3,0.1-0.4l1.5-1.6c0.1-0.1,0.3-0.1,0.4-0.1
								c0.1,0,0.3,0,0.4,0.1l3.6,3.5l7.9-7.8c0-0.1,0.1-0.1,0.2-0.2c0.1,0,0.1-0.1,0.2-0.1c0.1,0,0.2,0,0.2,0.1
								c0.1,0,0.1,0.1,0.2,0.2l1.6,1.5c0.1,0.1,0.1,0.3,0.1,0.4s0,0.3-0.1,0.4l-9.8,9.7c-0.1,0.1-0.3,0.1-0.4,0.1
								C179.7,32.8,179.5,32.8,179.4,32.7L179.4,32.7z"/>
						</g>
					</g>
				</g>
			</g>
		</g>
	</g>
</g>
<path class="st22" d="M106.7,46.7"/>
</svg>
