<svg width="300" height="100" viewBox="0 0 300 100" fill="none" xmlns="http://www.w3.org/2000/svg">
<rect width="300" height="100" fill="white"/>
<path d="M22 28H113V83H22V28Z" fill="white" fill-opacity="0.01"/>
<g opacity="0.6">
<path opacity="0.6" d="M54.9246 37.3561H22V75.6553H54.9246V37.3561Z" fill="url(#paint0_linear)"/>
</g>
<g opacity="0.6">
<path opacity="0.6" d="M113 37.3561H80.0754V75.6553H113V37.3561Z" fill="url(#paint1_linear)"/>
</g>
<path d="M70.3579 33.0758H33.1272V78.6137H70.3579V33.0758Z" fill="url(#paint2_linear)"/>
<path d="M101.491 33.0758H64.2607V78.6137H101.491V33.0758Z" fill="url(#paint3_linear)"/>
<path d="M58.6972 42.8485H37.3953V57.3371H58.6972V42.8485Z" fill="#C1C7D0"/>
<path d="M67.6905 59.5909H37.3953V60.3485H67.6905V59.5909Z" fill="#C1C7D0"/>
<path d="M67.6905 62.0909H37.3953V62.8485H67.6905V62.0909Z" fill="#C1C7D0"/>
<path d="M67.6905 64.5909H37.3953V65.3485H67.6905V64.5909Z" fill="#C1C7D0"/>
<path d="M95.9659 71.75H73.9019V56.4849H95.9659V71.75ZM74.664 70.9924H95.2038V57.2424H74.664V70.9924Z" fill="#C1C7D0"/>
<path d="M96.3851 41.3712H66.0898V42.1288H96.3851V41.3712Z" fill="#C1C7D0"/>
<path d="M96.3851 43.8712H66.0898V44.6288H96.3851V43.8712Z" fill="#C1C7D0"/>
<path d="M95.9659 66.9773H73.9019V61.2576H95.9659V66.9773ZM74.664 66.2197H95.2038V62.0151H74.664V66.2197Z" fill="#C1C7D0"/>
<path d="M95.9659 54.0606H73.9019V46.9773H95.9659V54.0606ZM74.664 53.3031H95.2038V47.7349H74.664V53.3031Z" fill="#C1C7D0"/>
<path d="M88.9162 38.1515V83H46.1218V28H78.7035L88.8781 38.1515H88.9162Z" fill="#F4F5F7"/>
<path d="M84.953 72.7349H50.9614V73.4924H84.953V72.7349Z" fill="#0065FF"/>
<path d="M84.953 70.2349H50.9614V70.9924H84.953V70.2349Z" fill="#0065FF"/>
<path d="M84.953 67.7349H50.9614V68.4924H84.953V67.7349Z" fill="#0065FF"/>
<path d="M84.953 65.197H50.9614V65.9546H84.953V65.197Z" fill="#0065FF"/>
<path d="M72.6825 75.2349H50.9614V75.9924H72.6825V75.2349Z" fill="#0065FF"/>
<path d="M84.953 70.2349H50.9614V70.9924H84.953V70.2349Z" fill="#0065FF"/>
<path d="M81.2567 37.0909H50.9614V37.8485H81.2567V37.0909Z" fill="#0065FF"/>
<path d="M72.6825 39.5909H50.9614V40.3485H72.6825V39.5909Z" fill="#0065FF"/>
<path d="M81.2567 34.5909H50.9614V35.3485H81.2567V34.5909Z" fill="#0065FF"/>
<path d="M81.2567 48.5682H50.9614V49.3258H81.2567V48.5682Z" fill="#0065FF"/>
<path d="M81.2567 46.0682H50.9614V46.8258H81.2567V46.0682Z" fill="#0065FF"/>
<path d="M81.2567 48.5682H50.9614V49.3258H81.2567V48.5682Z" fill="#0065FF"/>
<path d="M81.2567 51.1061H50.9614V51.8637H81.2567V51.1061Z" fill="#0065FF"/>
<path d="M81.2567 53.6061H50.9614V54.3637H81.2567V53.6061Z" fill="#0065FF"/>
<path d="M81.2567 56.1061H50.9614V56.8637H81.2567V56.1061Z" fill="#0065FF"/>
<path d="M72.6825 58.6061H50.9614V59.3637H72.6825V58.6061Z" fill="#0065FF"/>
<path style="mix-blend-mode:multiply" d="M88.9163 38.1516H88.8782L78.7798 28.0758V43.6061L88.9163 38.1894V38.1516Z" fill="url(#paint4_linear)"/>
<path d="M88.9161 38.1515H78.7034V28L88.9161 38.1515Z" fill="#FAFBFC"/>
<path d="M74.3593 57.5455C73.1954 58.7107 72.4038 60.1918 72.0838 61.8027C71.7639 63.4136 71.9298 65.0826 72.5608 66.6001C73.1918 68.1175 74.2598 69.4159 75.6306 70.3321C77.0014 71.2484 78.614 71.7417 80.2659 71.75C82.4827 71.74 84.6054 70.8576 86.1693 69.2959C87.7333 67.7342 88.6114 65.6203 88.6114 63.4167C88.6135 61.7744 88.1252 60.1685 87.2084 58.8023C86.2915 57.4361 84.9873 56.3712 83.461 55.7424C81.9348 55.1137 80.2551 54.9494 78.6347 55.2703C77.0144 55.5913 75.5264 56.3832 74.3593 57.5455Z" fill="white"/>
<g style="mix-blend-mode:multiply">
<path d="M88.9162 72.2802L88.6494 72.0151L88.9162 71.6742V59.0227C88.5351 58.5302 88.154 58.0757 87.7348 57.6212C85.6688 55.5805 82.8736 54.4364 79.961 54.4393C78.5197 54.4393 77.0926 54.7215 75.7611 55.2697C74.4295 55.818 73.2197 56.6215 72.2005 57.6345C71.1814 58.6475 70.373 59.8501 69.8215 61.1737C69.27 62.4973 68.9861 63.9158 68.9861 65.3484C68.9861 66.781 69.27 68.1996 69.8215 69.5232C70.373 70.8467 71.1814 72.0493 72.2005 73.0623C73.2197 74.0753 74.4295 74.8789 75.7611 75.4271C77.0926 75.9753 78.5197 76.2575 79.961 76.2575C82.4443 76.2724 84.8556 75.4288 86.7821 73.8712L87.2013 74.2878C87.5375 74.6217 87.7747 75.041 87.8873 75.4999C87.9912 75.9731 88.2292 76.4069 88.5732 76.7499L88.9162 77.0909V72.2802ZM85.8676 71.2196C84.301 72.7768 82.1764 73.6516 79.961 73.6516C77.7455 73.6516 75.6209 72.7768 74.0543 71.2196C72.4878 69.6625 71.6077 67.5506 71.6077 65.3484C71.6077 63.1463 72.4878 61.0344 74.0543 59.4772C75.6209 57.9201 77.7455 57.0453 79.961 57.0453C82.1764 57.0453 84.301 57.9201 85.8676 59.4772C87.4341 61.0344 88.3142 63.1463 88.3142 65.3484C88.3142 67.5506 87.4341 69.6625 85.8676 71.2196Z" fill="#DFE1E5"/>
</g>
<path d="M89.3736 70.5379L88.9544 70.1212C88.8335 69.9964 88.6885 69.897 88.5281 69.8292C88.3677 69.7613 88.1951 69.7263 88.0208 69.7263C87.8464 69.7263 87.6739 69.7613 87.5135 69.8292C87.353 69.897 87.208 69.9964 87.0872 70.1212C86.8515 70.3735 86.7205 70.705 86.7205 71.0493C86.7205 71.3935 86.8515 71.725 87.0872 71.9773L87.5063 72.3561C87.8423 72.705 88.079 73.1364 88.1923 73.6061C88.2969 74.068 88.5354 74.4894 88.8782 74.8182L94.2894 80.2349C94.6876 80.619 95.2207 80.8338 95.7756 80.8338C96.3305 80.8338 96.8636 80.619 97.2618 80.2349C97.4624 80.0439 97.622 79.8146 97.731 79.5607C97.8401 79.3069 97.8963 79.0337 97.8963 78.7576C97.8963 78.4815 97.8401 78.2083 97.731 77.9545C97.622 77.7006 97.4624 77.4713 97.2618 77.2803L91.8506 71.8637C91.5033 71.5321 91.0663 71.3083 90.593 71.2197C90.1313 71.1079 89.7095 70.872 89.3736 70.5379Z" fill="#42526E"/>
<path d="M84.2671 59.4773H71.9204V64.7121H84.2671V59.4773Z" fill="#0065FF"/>
<path d="M84.2671 72.4319H75.0452L71.9204 67.2046H84.2671V72.4319Z" fill="#0065FF"/>
<path d="M80.2658 74.3258C78.0991 74.3236 75.9815 73.684 74.1799 72.4875C72.3783 71.291 70.9733 69.5912 70.142 67.6023C69.3106 65.6134 69.0902 63.4244 69.5084 61.3112C69.9266 59.1979 70.9647 57.255 72.4919 55.7273C73.5081 54.7049 74.7187 53.8937 76.0533 53.3409C77.388 52.7881 78.8199 52.5049 80.2658 52.5076C81.7116 52.5049 83.1436 52.7881 84.4782 53.3409C85.8129 53.8937 87.0235 54.7049 88.0397 55.7273C90.0852 57.7776 91.2329 60.5481 91.2329 63.4356C91.2329 66.3231 90.0852 69.0937 88.0397 71.1439C85.9736 73.1847 83.1784 74.3287 80.2658 74.3258ZM80.2658 55.1212C78.6136 55.1191 76.998 55.6044 75.6235 56.5158C74.2491 57.4272 73.1778 58.7235 72.5452 60.2407C71.9127 61.7578 71.7474 63.4274 72.0703 65.038C72.3932 66.6486 73.1898 68.1277 74.3592 69.2879C75.5263 70.4502 77.0143 71.242 78.6347 71.563C80.255 71.884 81.9347 71.7197 83.461 71.091C84.9872 70.4622 86.2914 69.3973 87.2083 68.0311C88.1252 66.6649 88.6134 65.0589 88.6113 63.4167C88.6169 62.3262 88.4042 61.2454 87.9855 60.2374C87.5667 59.2294 86.9504 58.3144 86.1724 57.5455C85.3976 56.7738 84.4768 56.1623 83.463 55.7462C82.4492 55.3301 81.3626 55.1177 80.2658 55.1212Z" fill="#344563"/>
<path d="M132 28H188V83H132V28Z" fill="white" fill-opacity="0.01"/>
<path d="M149.894 79.923C149.601 79.1706 149.093 78.5254 148.438 78.0704C147.783 77.6155 147.009 77.3716 146.217 77.3701H143.922C142.395 77.4395 140.869 77.1917 139.438 76.6416C138.007 76.0916 136.7 75.2507 135.595 74.1698C134.49 73.0888 133.611 71.7901 133.01 70.352C132.409 68.914 132.1 67.3664 132.1 65.8026C132.1 64.2388 132.409 62.6912 133.01 61.2531C133.611 59.8151 134.49 58.5164 135.595 57.4354C136.7 56.3544 138.007 55.5136 139.438 54.9635C140.869 54.4135 142.395 54.1657 143.922 54.235H159.588C161.115 54.1657 162.64 54.4135 164.072 54.9635C165.503 55.5136 166.81 56.3544 167.915 57.4354C169.02 58.5164 169.899 59.8151 170.5 61.2531C171.101 62.6912 171.41 64.2388 171.41 65.8026C171.41 67.3664 171.101 68.914 170.5 70.352C169.899 71.7901 169.02 73.0888 167.915 74.1698C166.81 75.2507 165.503 76.0916 164.072 76.6416C162.64 77.1917 161.115 77.4395 159.588 77.3701H154.061C153.269 77.3716 152.496 77.6155 151.841 78.0704C151.185 78.5254 150.678 79.1706 150.384 79.923L150.139 80.584L149.894 79.923Z" fill="url(#paint5_linear)"/>
<g opacity="0.15">
<path opacity="0.15" d="M159.588 54.235H149.56C150.543 56.037 151.978 57.5382 153.717 58.584C155.456 59.6297 157.437 60.182 159.454 60.184H168.702C168.979 60.1793 169.256 60.2099 169.526 60.2752C168.555 58.4462 167.119 56.9195 165.37 55.8564C163.62 54.7932 161.623 54.233 159.588 54.235Z" fill="#091E42"/>
<path opacity="0.15" d="M159.588 54.235H149.56C150.543 56.037 151.978 57.5382 153.717 58.584C155.456 59.6297 157.437 60.182 159.454 60.184H168.702C168.979 60.1793 169.256 60.2099 169.526 60.2752C168.555 58.4462 167.119 56.9195 165.37 55.8564C163.62 54.7932 161.623 54.233 159.588 54.235Z" fill="#091E42"/>
</g>
<path opacity="0.4" d="M146.485 36.1372C146.564 35.9455 146.698 35.7824 146.869 35.6687C147.039 35.5551 147.239 35.496 147.443 35.499H148.891C149.371 35.4901 149.845 35.3846 150.285 35.1884C150.725 34.9923 151.123 34.7094 151.456 34.3559C151.789 34.0025 152.051 33.5853 152.227 33.1283C152.402 32.6713 152.488 32.1834 152.479 31.6925C152.473 30.7289 152.1 29.8057 151.438 29.1201C150.776 28.4344 149.878 28.0406 148.936 28.0228H145.861C144.936 28.0078 144.04 28.3522 143.353 28.9865C142.667 29.6208 142.241 30.4978 142.162 31.4405C142.082 32.3833 142.356 33.3217 142.926 34.0664C143.497 34.8112 144.323 35.3068 145.237 35.4534C145.385 35.4825 145.528 35.5364 145.66 35.6129L145.727 35.6813C145.9 35.7951 146.033 35.9629 146.106 36.16L146.284 36.6614L146.485 36.1372Z" fill="url(#paint6_linear)"/>
<path d="M163.51 62.8964H140.847V63.6827H163.51V62.8964Z" fill="white"/>
<path d="M163.51 65.7683H140.847V66.5547H163.51V65.7683Z" fill="white"/>
<path d="M152.256 68.6403H140.847V69.4266H152.256V68.6403Z" fill="white"/>
<path d="M181.159 72.2643C184.666 72.2643 187.51 69.356 187.51 65.7683C187.51 62.1806 184.666 59.2722 181.159 59.2722C177.651 59.2722 174.808 62.1806 174.808 65.7683C174.808 69.356 177.651 72.2643 181.159 72.2643Z" fill="#FFC400"/>
<path d="M181.627 59.295C179.949 59.1695 178.29 59.7302 177.016 60.8542C175.742 61.9781 174.955 63.5733 174.83 65.2896C174.8 65.7459 174.815 66.204 174.875 66.6572C176.607 66.2965 178.187 65.3944 179.396 64.0756C180.606 62.7568 181.385 61.0863 181.627 59.295Z" fill="#FFAB00"/>
<path d="M178.596 64.5374C178.965 64.5374 179.265 64.2312 179.265 63.8536C179.265 63.4759 178.965 63.1698 178.596 63.1698C178.227 63.1698 177.928 63.4759 177.928 63.8536C177.928 64.2312 178.227 64.5374 178.596 64.5374Z" fill="#FF8B00"/>
<path d="M184.39 66.4292C184.759 66.4292 185.058 66.1231 185.058 65.7454C185.058 65.3678 184.759 65.0616 184.39 65.0616C184.021 65.0616 183.721 65.3678 183.721 65.7454C183.721 66.1231 184.021 66.4292 184.39 66.4292Z" fill="#FF8B00"/>
<path d="M177.816 66.1558C178.044 66.6703 178.37 67.1336 178.774 67.519C179.178 67.9044 179.653 68.2042 180.17 68.4012C180.688 68.5983 181.239 68.6886 181.791 68.667C182.343 68.6454 182.886 68.5124 183.387 68.2755L183.565 68.1844L177.816 66.1558Z" fill="#FF991F"/>
<path d="M142.83 56.993C143.433 56.993 143.922 56.493 143.922 55.8761C143.922 55.2593 143.433 54.7593 142.83 54.7593C142.227 54.7593 141.738 55.2593 141.738 55.8761C141.738 56.493 142.227 56.993 142.83 56.993Z" fill="#0065FF"/>
<path d="M147.554 42.4053C147.196 41.0051 146.477 39.7292 145.471 38.7112C144.465 37.6933 143.21 36.9707 141.838 36.6194C140.465 36.268 139.025 36.3007 137.669 36.714C136.313 37.1274 135.091 37.9062 134.131 38.9688C133.17 40.0314 132.506 41.3387 132.21 42.7537C131.913 44.1688 131.993 45.6395 132.443 47.0117C132.893 48.3838 133.695 49.607 134.766 50.5531C135.837 51.4991 137.137 52.1331 138.529 52.3887C139.064 52.4843 139.56 52.7349 139.959 53.1107C140.358 53.4865 140.643 53.9717 140.78 54.5085C140.79 54.5571 140.81 54.6031 140.839 54.6436C140.867 54.6841 140.903 54.7182 140.945 54.7438C140.987 54.7695 141.033 54.7861 141.082 54.7926C141.13 54.7992 141.179 54.7956 141.226 54.782H141.248L143.655 54.1438C143.751 54.1124 143.833 54.0469 143.886 53.9592C143.939 53.8714 143.96 53.7671 143.944 53.6651C143.802 53.1295 143.817 52.5629 143.987 52.036C144.158 51.5091 144.476 51.0451 144.903 50.702C146.074 49.7231 146.946 48.4212 147.416 46.9507C147.886 45.4803 147.934 43.9028 147.554 42.4053Z" fill="url(#paint7_linear)"/>
<path d="M143.674 54.1145L141.259 54.758C141.056 54.812 140.935 55.0236 140.988 55.2307L141.252 56.2696C141.305 56.4767 141.512 56.6008 141.714 56.5469L144.13 55.9034C144.332 55.8494 144.454 55.6378 144.401 55.4307L144.136 54.3918C144.084 54.1848 143.877 54.0606 143.674 54.1145Z" fill="white"/>
<path d="M141.203 54.782L139.51 48.1036L138.819 48.286C138.575 48.3506 138.319 48.3396 138.081 48.2546C137.843 48.1696 137.636 48.0143 137.485 47.8085C137.334 47.6026 137.246 47.3555 137.232 47.0984C137.218 46.8413 137.28 46.586 137.408 46.3646C137.537 46.1433 137.727 45.9661 137.954 45.8554C138.181 45.7447 138.436 45.7055 138.685 45.7428C138.934 45.7802 139.166 45.8924 139.353 46.0651C139.539 46.2379 139.672 46.4635 139.733 46.7133L139.911 47.4198L141.203 47.0551L141.025 46.3714C140.97 46.2028 140.949 46.0245 140.964 45.8474C140.979 45.6703 141.03 45.4983 141.112 45.3419C141.195 45.1855 141.308 45.0481 141.444 44.9382C141.581 44.8282 141.738 44.7481 141.906 44.7028C142.074 44.6575 142.249 44.648 142.421 44.6747C142.593 44.7015 142.757 44.764 142.905 44.8585C143.052 44.9529 143.179 45.0772 143.277 45.2238C143.375 45.3703 143.443 45.5359 143.476 45.7103C143.558 46.0397 143.511 46.3887 143.344 46.6827C143.178 46.9767 142.905 47.1922 142.585 47.2831L141.894 47.4654L143.588 54.1438L143.053 54.3034L141.337 47.625L140.045 47.9669L141.761 54.6453L141.203 54.782ZM138.507 46.303H138.329C138.143 46.3513 137.983 46.4734 137.885 46.6422C137.786 46.811 137.758 47.0129 137.805 47.2033C137.852 47.3937 137.972 47.5571 138.137 47.6576C138.302 47.758 138.499 47.7873 138.685 47.7389L139.376 47.5566L139.198 46.85C139.155 46.6953 139.065 46.5586 138.941 46.4602C138.816 46.3617 138.664 46.3066 138.507 46.303ZM142.251 45.3001H142.073C141.892 45.3534 141.739 45.4752 141.644 45.6405C141.548 45.8057 141.518 46.0019 141.56 46.189L141.738 46.8956L142.429 46.7133C142.52 46.6893 142.605 46.6474 142.68 46.5898C142.755 46.5321 142.818 46.46 142.865 46.3774C142.913 46.2949 142.944 46.2035 142.957 46.1086C142.97 46.0137 142.965 45.9171 142.942 45.8243C142.895 45.6738 142.803 45.5422 142.679 45.4481C142.555 45.354 142.405 45.3022 142.251 45.3001Z" fill="#FFE380"/>
<path d="M173.783 60.503C173.509 59.7889 173.03 59.1761 172.41 58.745C171.79 58.3139 171.057 58.0845 170.307 58.087H161.059C158.056 58.087 155.177 56.867 153.054 54.6956C150.931 52.5241 149.738 49.5789 149.738 46.508C149.738 43.4371 150.931 40.4919 153.054 38.3205C155.177 36.149 158.056 34.9291 161.059 34.9291H176.658C179.569 34.9407 182.364 36.0995 184.462 38.1644C186.56 40.2294 187.8 43.0419 187.923 46.0174C188.047 48.9928 187.044 51.9025 185.125 54.1418C183.205 56.381 180.516 57.7776 177.616 58.0414C176.97 58.0899 176.348 58.3099 175.811 58.6796L175.744 58.7252C175.113 59.161 174.624 59.7803 174.34 60.503L174.073 61.2096L173.783 60.503Z" fill="url(#paint8_linear)"/>
<path d="M179.443 43.2715H158.273V44.2174H179.443V43.2715Z" fill="#4C9AFF"/>
<path d="M179.443 46.4854H158.273V47.4313H179.443V46.4854Z" fill="#4C9AFF"/>
<path d="M172.602 49.6992H158.273V50.6451H172.602V49.6992Z" fill="#4C9AFF"/>
<path d="M171.599 82.2478L171.421 82.1794L171.688 81.4956L171.866 81.564L171.599 82.2478Z" fill="#0065FF"/>
<path d="M170.396 81.7691L170.217 81.7007L170.485 80.9941L170.663 81.0625L170.396 81.7691Z" fill="#0065FF"/>
<path d="M171.034 81.2038L170.765 81.9037L171.005 82.0006L171.275 81.3007L171.034 81.2038Z" fill="#0065FF"/>
<path d="M171.777 81.5868C172.535 81.0626 173.315 80.9942 174.184 80.789C175.101 80.5484 175.92 80.0165 176.524 79.2698C177.127 78.5231 177.483 77.6 177.542 76.6332C177.6 75.6663 177.357 74.7054 176.848 73.8885C176.339 73.0717 175.59 72.4409 174.708 72.0868C173.827 71.7327 172.858 71.6735 171.942 71.9178C171.025 72.1621 170.208 72.6972 169.608 73.4463C169.007 74.1954 168.654 75.1199 168.599 76.087C168.545 77.0541 168.791 78.014 169.304 78.8288C169.794 79.581 170.329 80.1736 170.507 81.0854H170.529L171.755 81.5868H171.777Z" fill="url(#paint9_linear)"/>
<path d="M171.599 81.5184C172.111 80.8802 172.602 80.6979 173.159 80.356C174.05 79.8089 174.897 78.6009 175.409 77.2333C176.279 74.8628 175.922 72.5379 174.63 72.0365C173.337 71.535 171.599 73.0849 170.73 75.4554C170.24 76.823 170.106 78.3046 170.44 79.3075C170.641 79.9457 170.886 80.4243 170.886 81.2449L171.577 81.4956L171.599 81.5184Z" fill="#B2D4FF"/>
<path d="M171.621 82.1795C171.621 82.1339 171.599 82.1111 171.554 82.0883L170.351 81.6096H170.24C170.218 81.6191 170.2 81.6352 170.188 81.6556C170.176 81.676 170.171 81.6998 170.173 81.7236L170.106 82.5441C170.107 82.5731 170.116 82.6011 170.132 82.6252C170.148 82.6493 170.17 82.6685 170.195 82.6809L170.953 82.9772H170.997C171.042 82.9772 171.064 82.9544 171.086 82.9088L171.599 82.2706C171.644 82.2706 171.644 82.225 171.621 82.1795Z" fill="#0065FF"/>
<g clip-path="url(#clip0)">
<path d="M212 33H278V79H212V33Z" fill="white" fill-opacity="0.01"/>
<path d="M254.694 33H214.239C213.003 33 212 34.023 212 35.285V61.9229C212 63.1848 213.003 64.2078 214.239 64.2078H254.694C255.93 64.2078 256.933 63.1848 256.933 61.9229V35.285C256.933 34.023 255.93 33 254.694 33Z" fill="#57D9A3"/>
<path opacity="0.1" d="M230.091 52.0314C229.497 52.0314 228.928 52.2721 228.508 52.7006C228.088 53.1291 227.852 53.7103 227.852 54.3163V64.2078H254.694C255.288 64.2078 255.857 63.9671 256.277 63.5386C256.697 63.1101 256.933 62.5289 256.933 61.9229V52.0314H230.091Z" fill="url(#paint10_linear)"/>
<path d="M254.193 47.7921H214.858V52.0283H254.193V47.7921Z" fill="#79F2C0"/>
<path d="M275.761 47.7921H235.306C234.069 47.7921 233.067 48.8151 233.067 50.0771V76.715C233.067 77.9769 234.069 79 235.306 79H275.761C276.997 79 278 77.9769 278 76.715V50.0771C278 48.8151 276.997 47.7921 275.761 47.7921Z" fill="url(#paint11_linear)"/>
<path opacity="0.5" d="M278 50.0771C278 49.4711 277.764 48.8899 277.344 48.4614C276.924 48.0329 276.355 47.7921 275.761 47.7921H274.022C273.138 51.8209 271.606 54.2562 270.192 55.8196C265.065 61.4418 257.257 60.0287 249.567 61.1712C257.051 62.1333 263.975 64.9294 270.28 61.5921C272.667 60.2993 275.672 57.7437 278 52.0313V50.0771Z" fill="url(#paint12_linear)"/>
<path opacity="0.75" d="M235.778 62.9751C234.841 63.4342 233.935 63.9565 233.067 64.5385V73.047C234.187 70.7928 235.649 68.733 237.398 66.9438C241.111 63.1856 245.324 61.8026 249.567 61.1712C245.147 60.6 240.551 60.6902 235.778 62.9751Z" fill="url(#paint13_linear)"/>
<path d="M270.192 55.8196C271.606 54.2562 273.138 51.8209 274.022 47.7921H235.306C234.712 47.7921 234.143 48.0329 233.723 48.4614C233.303 48.8899 233.067 49.4711 233.067 50.0771V64.5385C233.935 63.9565 234.841 63.4342 235.778 62.9751C240.551 60.6902 245.147 60.6 249.567 61.1712C257.257 60.0287 265.065 61.4418 270.192 55.8196Z" fill="url(#paint14_linear)"/>
<path d="M270.192 55.8196C271.606 54.2562 273.138 51.8209 274.022 47.7921H235.306C234.712 47.7921 234.143 48.0329 233.723 48.4614C233.303 48.8899 233.067 49.4711 233.067 50.0771V64.5385C233.935 63.9565 234.841 63.4342 235.778 62.9751C240.551 60.6902 245.147 60.6 249.567 61.1712C257.257 60.0287 265.065 61.4418 270.192 55.8196Z" fill="url(#paint15_linear)"/>
<path d="M256.933 37.8706H212V44.7195H256.933V37.8706Z" fill="url(#paint16_linear)"/>
<path d="M217.805 61.5621C219.432 61.5621 220.751 60.2161 220.751 58.5556C220.751 56.8951 219.432 55.5491 217.805 55.5491C216.177 55.5491 214.858 56.8951 214.858 58.5556C214.858 60.2161 216.177 61.5621 217.805 61.5621Z" fill="#79F2C0"/>
<path d="M272.785 58.2249H268.601C267.901 58.2249 267.334 58.8037 267.334 59.5177V63.7749C267.334 64.4889 267.901 65.0677 268.601 65.0677H272.785C273.485 65.0677 274.052 64.4889 274.052 63.7749V59.5177C274.052 58.8037 273.485 58.2249 272.785 58.2249Z" fill="#DEEBFF"/>
<path d="M273.079 63.396V59.8483C273.079 59.483 272.789 59.1869 272.431 59.1869H268.943C268.585 59.1869 268.294 59.483 268.294 59.8483V63.396C268.294 63.7613 268.585 64.0575 268.943 64.0575H272.431C272.789 64.0575 273.079 63.7613 273.079 63.396Z" fill="#B2D4FF"/>
<path d="M254.281 72.8967H236.308V73.498H254.281V72.8967Z" fill="#0052CC"/>
<path d="M274.022 72.8967H267.01V73.498H274.022V72.8967Z" fill="#0052CC"/>
<path d="M254.281 75.1516H236.308V75.7529H254.281V75.1516Z" fill="#0052CC"/>
<path d="M239.372 53.9555L240.963 55.579L239.372 57.2026L236.19 53.9555L239.372 50.7385L240.963 52.332L239.372 53.9555Z" fill="#4C9AFF"/>
<path d="M240.962 52.3329L239.378 53.9486L240.966 55.5686L242.549 53.9529L240.962 52.3329Z" fill="#0052CC"/>
<path d="M245.707 53.9555L242.525 57.2026L240.963 55.579L242.525 53.9555L240.963 52.332L242.525 50.7385L245.707 53.9555Z" fill="#79F2C0"/>
<path d="M237.192 70.3111H236.78C236.694 70.3111 236.61 70.294 236.532 70.2607C236.453 70.2275 236.381 70.1788 236.321 70.1173C236.261 70.0559 236.213 69.983 236.181 69.9028C236.148 69.8225 236.131 69.7365 236.131 69.6496V68.5974C236.131 68.5105 236.148 68.4245 236.181 68.3442C236.213 68.264 236.261 68.1911 236.321 68.1296C236.381 68.0682 236.453 68.0195 236.532 67.9863C236.61 67.953 236.694 67.9359 236.78 67.9359H237.192C237.364 67.9359 237.529 68.0056 237.65 68.1296C237.772 68.2537 237.84 68.4219 237.84 68.5974V69.6496C237.84 69.8251 237.772 69.9933 237.65 70.1173C237.529 70.2414 237.364 70.3111 237.192 70.3111ZM236.78 68.5372C236.764 68.5372 236.749 68.5436 236.738 68.5548C236.727 68.5661 236.721 68.5814 236.721 68.5974V69.6496L236.78 69.7098H237.192L237.251 69.6496V68.5974C237.251 68.5814 237.245 68.5661 237.234 68.5548C237.223 68.5436 237.208 68.5372 237.192 68.5372H236.78Z" fill="#DEEBFF"/>
<path d="M239.343 70.3111H238.901C238.729 70.3111 238.564 70.2414 238.443 70.1173C238.321 69.9933 238.253 69.8251 238.253 69.6496V68.5974C238.253 68.4219 238.321 68.2537 238.443 68.1296C238.564 68.0056 238.729 67.9359 238.901 67.9359H239.343C239.51 67.9437 239.667 68.0167 239.782 68.14C239.898 68.2632 239.962 68.427 239.962 68.5974V69.6496C239.962 69.82 239.898 69.9838 239.782 70.107C239.667 70.2302 239.51 70.3033 239.343 70.3111ZM238.901 68.5372C238.885 68.5372 238.87 68.5436 238.859 68.5548C238.848 68.5661 238.842 68.5814 238.842 68.5974V69.6496L238.901 69.7098H239.343V68.5974C239.341 68.5742 239.33 68.5526 239.313 68.5372H238.901Z" fill="#DEEBFF"/>
<path d="M241.464 70.3111H241.022C240.938 70.3112 240.856 70.2939 240.778 70.2603C240.701 70.2267 240.632 70.1775 240.574 70.1156C240.516 70.0538 240.471 69.9806 240.442 69.9005C240.413 69.8204 240.4 69.735 240.404 69.6496V68.5974C240.4 68.5119 240.413 68.4266 240.442 68.3465C240.471 68.2664 240.516 68.1932 240.574 68.1313C240.632 68.0695 240.701 68.0203 240.778 67.9867C240.856 67.9531 240.938 67.9358 241.022 67.9359H241.464C241.548 67.9358 241.631 67.9531 241.708 67.9867C241.785 68.0203 241.855 68.0695 241.913 68.1313C241.97 68.1932 242.015 68.2664 242.045 68.3465C242.074 68.4266 242.087 68.5119 242.083 68.5974V69.6496C242.087 69.735 242.074 69.8204 242.045 69.9005C242.015 69.9806 241.97 70.0538 241.913 70.1156C241.855 70.1775 241.785 70.2267 241.708 70.2603C241.631 70.2939 241.548 70.3112 241.464 70.3111ZM241.022 68.5372C240.993 68.5372 240.993 68.5673 240.993 68.5974V69.6496C240.993 69.6797 240.993 69.7098 241.022 69.7098H241.464C241.494 69.7098 241.494 69.6797 241.494 69.6496V68.5974C241.494 68.5673 241.494 68.5372 241.464 68.5372H241.022Z" fill="#DEEBFF"/>
<path d="M243.586 70.3111H243.144C242.977 70.3033 242.819 70.2302 242.704 70.107C242.589 69.9838 242.525 69.82 242.525 69.6496V68.5974C242.525 68.427 242.589 68.2632 242.704 68.14C242.819 68.0167 242.977 67.9437 243.144 67.9359H243.586C243.669 67.9358 243.752 67.9531 243.829 67.9867C243.906 68.0203 243.976 68.0695 244.034 68.1313C244.092 68.1932 244.137 68.2664 244.166 68.3465C244.195 68.4266 244.208 68.5119 244.204 68.5974V69.6496C244.208 69.735 244.195 69.8204 244.166 69.9005C244.137 69.9806 244.092 70.0538 244.034 70.1156C243.976 70.1775 243.906 70.2267 243.829 70.2603C243.752 70.2939 243.669 70.3112 243.586 70.3111ZM243.144 68.5372C243.127 68.5526 243.116 68.5742 243.114 68.5974V69.7098H243.556C243.586 69.7098 243.586 69.6797 243.586 69.6496V68.5974C243.586 68.5673 243.586 68.5372 243.556 68.5372H243.144Z" fill="#DEEBFF"/>
<path d="M247.239 70.3111H246.797C246.714 70.3112 246.631 70.2939 246.554 70.2603C246.477 70.2267 246.407 70.1775 246.349 70.1156C246.291 70.0538 246.246 69.9806 246.217 69.9005C246.188 69.8204 246.175 69.735 246.179 69.6496V68.5974C246.175 68.5119 246.188 68.4266 246.217 68.3465C246.246 68.2664 246.291 68.1932 246.349 68.1313C246.407 68.0695 246.477 68.0203 246.554 67.9867C246.631 67.9531 246.714 67.9358 246.797 67.9359H247.239C247.323 67.9358 247.406 67.9531 247.483 67.9867C247.56 68.0203 247.63 68.0695 247.688 68.1313C247.746 68.1932 247.79 68.2664 247.82 68.3465C247.849 68.4266 247.862 68.5119 247.858 68.5974V69.6496C247.862 69.735 247.849 69.8204 247.82 69.9005C247.79 69.9806 247.746 70.0538 247.688 70.1156C247.63 70.1775 247.56 70.2267 247.483 70.2603C247.406 70.2939 247.323 70.3112 247.239 70.3111ZM246.797 68.5372C246.768 68.5372 246.768 68.5673 246.768 68.5974V69.6496C246.768 69.6797 246.768 69.7098 246.797 69.7098H247.239C247.269 69.7098 247.269 69.6797 247.269 69.6496V68.5974C247.269 68.5673 247.269 68.5372 247.239 68.5372H246.797Z" fill="#DEEBFF"/>
<path d="M249.361 70.3111H248.919C248.752 70.3033 248.595 70.2302 248.479 70.107C248.364 69.9838 248.3 69.82 248.3 69.6496V68.5974C248.3 68.427 248.364 68.2632 248.479 68.14C248.595 68.0167 248.752 67.9437 248.919 67.9359H249.361C249.445 67.9358 249.528 67.9531 249.605 67.9867C249.682 68.0203 249.751 68.0695 249.809 68.1313C249.867 68.1932 249.912 68.2664 249.941 68.3465C249.97 68.4266 249.984 68.5119 249.98 68.5974V69.6496C249.984 69.735 249.97 69.8204 249.941 69.9005C249.912 69.9806 249.867 70.0538 249.809 70.1156C249.751 70.1775 249.682 70.2267 249.605 70.2603C249.528 70.2939 249.445 70.3112 249.361 70.3111ZM248.919 68.5372C248.902 68.5526 248.891 68.5742 248.889 68.5974V69.7098H249.331C249.361 69.7098 249.361 69.6797 249.361 69.6496V68.5974C249.361 68.5673 249.361 68.5372 249.331 68.5372H248.919Z" fill="#DEEBFF"/>
<path d="M251.482 70.3111H251.07C250.898 70.3111 250.733 70.2414 250.611 70.1173C250.49 69.9933 250.421 69.8251 250.421 69.6496V68.5974C250.421 68.4219 250.49 68.2537 250.611 68.1296C250.733 68.0056 250.898 67.9359 251.07 67.9359H251.482C251.654 67.9359 251.819 68.0056 251.94 68.1296C252.062 68.2537 252.13 68.4219 252.13 68.5974V69.6496C252.13 69.8251 252.062 69.9933 251.94 70.1173C251.819 70.2414 251.654 70.3111 251.482 70.3111ZM251.07 68.5372C251.054 68.5372 251.039 68.5436 251.028 68.5548C251.017 68.5661 251.011 68.5814 251.011 68.5974V69.6496L251.07 69.7098H251.482L251.541 69.6496V68.5974C251.541 68.5814 251.535 68.5661 251.524 68.5548C251.513 68.5436 251.498 68.5372 251.482 68.5372H251.07Z" fill="#DEEBFF"/>
<path d="M253.604 70.3111H253.191C253.019 70.3111 252.854 70.2414 252.733 70.1173C252.611 69.9933 252.543 69.8251 252.543 69.6496V68.5974C252.543 68.4219 252.611 68.2537 252.733 68.1296C252.854 68.0056 253.019 67.9359 253.191 67.9359H253.604C253.776 67.9359 253.94 68.0056 254.062 68.1296C254.184 68.2537 254.252 68.4219 254.252 68.5974V69.6496C254.252 69.8251 254.184 69.9933 254.062 70.1173C253.94 70.2414 253.776 70.3111 253.604 70.3111ZM253.191 68.5372C253.176 68.5372 253.161 68.5436 253.15 68.5548C253.138 68.5661 253.132 68.5814 253.132 68.5974V69.6496C253.132 69.6656 253.138 69.6809 253.15 69.6922C253.161 69.7034 253.176 69.7098 253.191 69.7098H253.604C253.619 69.7098 253.634 69.7034 253.645 69.6922C253.656 69.6809 253.663 69.6656 253.663 69.6496V68.5974C253.663 68.5814 253.656 68.5661 253.645 68.5548C253.634 68.5436 253.619 68.5372 253.604 68.5372H253.191Z" fill="#DEEBFF"/>
<path d="M257.257 70.3111H256.845C256.673 70.3111 256.508 70.2414 256.386 70.1173C256.265 69.9933 256.197 69.8251 256.197 69.6496V68.5974C256.197 68.4219 256.265 68.2537 256.386 68.1296C256.508 68.0056 256.673 67.9359 256.845 67.9359H257.257C257.429 67.9359 257.594 68.0056 257.716 68.1296C257.837 68.2537 257.905 68.4219 257.905 68.5974V69.6496C257.905 69.8251 257.837 69.9933 257.716 70.1173C257.594 70.2414 257.429 70.3111 257.257 70.3111ZM256.845 68.5372C256.829 68.5372 256.814 68.5436 256.803 68.5548C256.792 68.5661 256.786 68.5814 256.786 68.5974V69.6496L256.845 69.7098H257.257L257.316 69.6496V68.5974C257.316 68.5814 257.31 68.5661 257.299 68.5548C257.288 68.5436 257.273 68.5372 257.257 68.5372H256.845Z" fill="#DEEBFF"/>
<path d="M259.379 70.3111H258.966C258.794 70.3111 258.629 70.2414 258.508 70.1173C258.386 69.9933 258.318 69.8251 258.318 69.6496V68.5974C258.318 68.4219 258.386 68.2537 258.508 68.1296C258.629 68.0056 258.794 67.9359 258.966 67.9359H259.379C259.551 67.9359 259.715 68.0056 259.837 68.1296C259.959 68.2537 260.027 68.4219 260.027 68.5974V69.6496C260.027 69.8251 259.959 69.9933 259.837 70.1173C259.715 70.2414 259.551 70.3111 259.379 70.3111ZM258.966 68.5372C258.95 68.5372 258.935 68.5436 258.924 68.5548C258.913 68.5661 258.907 68.5814 258.907 68.5974V69.6496L258.966 69.7098H259.379L259.438 69.6496V68.5974C259.438 68.5814 259.431 68.5661 259.42 68.5548C259.409 68.5436 259.394 68.5372 259.379 68.5372H258.966Z" fill="#DEEBFF"/>
<path d="M261.529 70.3111H261.087C261.004 70.3112 260.921 70.2939 260.844 70.2603C260.767 70.2267 260.697 70.1775 260.639 70.1156C260.581 70.0538 260.536 69.9806 260.507 69.9005C260.478 69.8204 260.465 69.735 260.469 69.6496V68.5974C260.465 68.5119 260.478 68.4266 260.507 68.3465C260.536 68.2664 260.581 68.1932 260.639 68.1313C260.697 68.0695 260.767 68.0203 260.844 67.9867C260.921 67.9531 261.004 67.9358 261.087 67.9359H261.529C261.696 67.9437 261.854 68.0167 261.969 68.14C262.084 68.2632 262.148 68.427 262.148 68.5974V69.6496C262.148 69.82 262.084 69.9838 261.969 70.107C261.854 70.2302 261.696 70.3033 261.529 70.3111ZM261.087 68.5372C261.058 68.5372 261.058 68.5673 261.058 68.5974V69.6496C261.058 69.6797 261.058 69.7098 261.087 69.7098H261.529V68.5974C261.528 68.5742 261.517 68.5526 261.5 68.5372H261.087Z" fill="#DEEBFF"/>
<path d="M263.651 70.3111H263.209C263.125 70.3112 263.042 70.2939 262.965 70.2603C262.888 70.2267 262.818 70.1775 262.761 70.1156C262.703 70.0538 262.658 69.9806 262.628 69.9005C262.599 69.8204 262.586 69.735 262.59 69.6496V68.5974C262.586 68.5119 262.599 68.4266 262.628 68.3465C262.658 68.2664 262.703 68.1932 262.761 68.1313C262.818 68.0695 262.888 68.0203 262.965 67.9867C263.042 67.9531 263.125 67.9358 263.209 67.9359H263.651C263.735 67.9358 263.818 67.9531 263.895 67.9867C263.972 68.0203 264.041 68.0695 264.099 68.1313C264.157 68.1932 264.202 68.2664 264.231 68.3465C264.26 68.4266 264.274 68.5119 264.27 68.5974V69.6496C264.274 69.735 264.26 69.8204 264.231 69.9005C264.202 69.9806 264.157 70.0538 264.099 70.1156C264.041 70.1775 263.972 70.2267 263.895 70.2603C263.818 70.2939 263.735 70.3112 263.651 70.3111ZM263.209 68.5372C263.179 68.5372 263.179 68.5673 263.179 68.5974V69.6496C263.179 69.6797 263.179 69.7098 263.209 69.7098H263.651C263.68 69.7098 263.68 69.6797 263.68 69.6496V68.5974C263.68 68.5673 263.68 68.5372 263.651 68.5372H263.209Z" fill="#DEEBFF"/>
<path d="M267.305 70.3111H266.863C266.779 70.3112 266.696 70.2939 266.619 70.2603C266.542 70.2267 266.472 70.1775 266.414 70.1156C266.356 70.0538 266.312 69.9806 266.282 69.9005C266.253 69.8204 266.24 69.735 266.244 69.6496V68.5974C266.24 68.5119 266.253 68.4266 266.282 68.3465C266.312 68.2664 266.356 68.1932 266.414 68.1313C266.472 68.0695 266.542 68.0203 266.619 67.9867C266.696 67.9531 266.779 67.9358 266.863 67.9359H267.305C267.471 67.9437 267.629 68.0167 267.744 68.14C267.859 68.2632 267.924 68.427 267.923 68.5974V69.6496C267.924 69.82 267.859 69.9838 267.744 70.107C267.629 70.2302 267.471 70.3033 267.305 70.3111ZM266.863 68.5372C266.833 68.5372 266.833 68.5673 266.833 68.5974V69.6496C266.833 69.6797 266.833 69.7098 266.863 69.7098H267.305V68.5974C267.303 68.5742 267.292 68.5526 267.275 68.5372H266.863Z" fill="#DEEBFF"/>
<path d="M269.426 70.3111H268.984C268.9 70.3112 268.817 70.2939 268.74 70.2603C268.663 70.2267 268.594 70.1775 268.536 70.1156C268.478 70.0538 268.433 69.9806 268.404 69.9005C268.374 69.8204 268.361 69.735 268.365 69.6496V68.5974C268.361 68.5119 268.374 68.4266 268.404 68.3465C268.433 68.2664 268.478 68.1932 268.536 68.1313C268.594 68.0695 268.663 68.0203 268.74 67.9867C268.817 67.9531 268.9 67.9358 268.984 67.9359H269.426C269.51 67.9358 269.593 67.9531 269.67 67.9867C269.747 68.0203 269.816 68.0695 269.874 68.1313C269.932 68.1932 269.977 68.2664 270.006 68.3465C270.036 68.4266 270.049 68.5119 270.045 68.5974V69.6496C270.049 69.735 270.036 69.8204 270.006 69.9005C269.977 69.9806 269.932 70.0538 269.874 70.1156C269.816 70.1775 269.747 70.2267 269.67 70.2603C269.593 70.2939 269.51 70.3112 269.426 70.3111ZM268.984 68.5372C268.954 68.5372 268.954 68.5673 268.954 68.5974V69.6496C268.954 69.6797 268.954 69.7098 268.984 69.7098H269.426C269.455 69.7098 269.455 69.6797 269.455 69.6496V68.5974C269.455 68.5673 269.455 68.5372 269.426 68.5372H268.984Z" fill="#DEEBFF"/>
<path d="M271.547 70.3111H271.105C270.939 70.3033 270.781 70.2302 270.666 70.107C270.551 69.9838 270.486 69.82 270.487 69.6496V68.5974C270.486 68.427 270.551 68.2632 270.666 68.14C270.781 68.0167 270.939 67.9437 271.105 67.9359H271.547C271.719 67.9359 271.884 68.0056 272.006 68.1296C272.127 68.2537 272.196 68.4219 272.196 68.5974V69.6496C272.196 69.8251 272.127 69.9933 272.006 70.1173C271.884 70.2414 271.719 70.3111 271.547 70.3111ZM271.105 68.5372C271.088 68.5526 271.078 68.5742 271.076 68.5974V69.7098H271.518L271.577 69.6496V68.5974C271.577 68.5814 271.571 68.5661 271.559 68.5548C271.548 68.5436 271.533 68.5372 271.518 68.5372H271.105Z" fill="#DEEBFF"/>
<path d="M273.669 70.3111H273.256C273.084 70.3111 272.92 70.2414 272.798 70.1173C272.676 69.9933 272.608 69.8251 272.608 69.6496V68.5974C272.608 68.4219 272.676 68.2537 272.798 68.1296C272.92 68.0056 273.084 67.9359 273.256 67.9359H273.669C273.841 67.9359 274.006 68.0056 274.127 68.1296C274.249 68.2537 274.317 68.4219 274.317 68.5974V69.6496C274.317 69.8251 274.249 69.9933 274.127 70.1173C274.006 70.2414 273.841 70.3111 273.669 70.3111ZM273.256 68.5372C273.241 68.5372 273.226 68.5436 273.215 68.5548C273.204 68.5661 273.197 68.5814 273.197 68.5974V69.6496L273.256 69.7098H273.669L273.728 69.6496V68.5974C273.728 68.5814 273.722 68.5661 273.711 68.5548C273.699 68.5436 273.684 68.5372 273.669 68.5372H273.256Z" fill="#DEEBFF"/>
</g>
<defs>
<linearGradient id="paint0_linear" x1="22" y1="56.5076" x2="54.917" y2="56.5076" gradientUnits="userSpaceOnUse">
<stop stop-color="#C1C7D0" stop-opacity="0.4"/>
<stop offset="0.276042" stop-color="#B4BBC6" stop-opacity="0.68"/>
<stop offset="0.604167" stop-color="#A9B1BD" stop-opacity="0.91"/>
<stop offset="0.885417" stop-color="#A5ADBA"/>
</linearGradient>
<linearGradient id="paint1_linear" x1="80.0907" y1="56.5076" x2="113.008" y2="56.5076" gradientUnits="userSpaceOnUse">
<stop stop-color="#A5ADBA"/>
<stop offset="0.22" stop-color="#A6AEBB" stop-opacity="0.98"/>
<stop offset="0.39" stop-color="#A9B0BD" stop-opacity="0.92"/>
<stop offset="0.55" stop-color="#ADB4C0" stop-opacity="0.83"/>
<stop offset="0.69" stop-color="#B3BAC5" stop-opacity="0.69"/>
<stop offset="0.83" stop-color="#BBC2CC" stop-opacity="0.52"/>
<stop offset="0.91" stop-color="#C1C7D0" stop-opacity="0.4"/>
</linearGradient>
<linearGradient id="paint2_linear" x1="30.997" y1="76.4773" x2="72.269" y2="34.9565" gradientUnits="userSpaceOnUse">
<stop offset="0.06" stop-color="#DFE1E5"/>
<stop offset="1" stop-color="#EBECF0"/>
</linearGradient>
<linearGradient id="paint3_linear" x1="3982.8" y1="5861.01" x2="8845.64" y2="1885.26" gradientUnits="userSpaceOnUse">
<stop offset="0.06" stop-color="#DFE1E5"/>
<stop offset="1" stop-color="#EBECF0"/>
</linearGradient>
<linearGradient id="paint4_linear" x1="76.0246" y1="40.8864" x2="86.604" y2="30.2433" gradientUnits="userSpaceOnUse">
<stop stop-color="#FAFBFC"/>
<stop offset="0.28" stop-color="#EFF1F3"/>
<stop offset="0.77" stop-color="#D1D6DD"/>
<stop offset="1" stop-color="#C1C7D0"/>
</linearGradient>
<linearGradient id="paint5_linear" x1="134.485" y1="83.4696" x2="164.168" y2="54.4497" gradientUnits="userSpaceOnUse">
<stop offset="0.16" stop-color="#00C7E5"/>
<stop offset="0.28" stop-color="#20CFEA"/>
<stop offset="0.53" stop-color="#5FDFF3"/>
<stop offset="0.74" stop-color="#8CEBF9"/>
<stop offset="0.91" stop-color="#A9F2FD"/>
<stop offset="1" stop-color="#B3F5FF"/>
</linearGradient>
<linearGradient id="paint6_linear" x1="141.985" y1="37.213" x2="150.519" y2="28.8697" gradientUnits="userSpaceOnUse">
<stop offset="0.27" stop-color="#B2D4FF"/>
<stop offset="0.48" stop-color="#B7D7FF"/>
<stop offset="0.73" stop-color="#C7DFFF"/>
<stop offset="1" stop-color="#DEEBFF"/>
</linearGradient>
<linearGradient id="paint7_linear" x1="134.852" y1="50.6952" x2="146.28" y2="39.5225" gradientUnits="userSpaceOnUse">
<stop offset="0.27" stop-color="#FFAB00"/>
<stop offset="0.38" stop-color="#FFAD05"/>
<stop offset="0.51" stop-color="#FFB415"/>
<stop offset="0.66" stop-color="#FFBF2E"/>
<stop offset="0.83" stop-color="#FFCE51"/>
<stop offset="0.99" stop-color="#FFE27E"/>
<stop offset="1" stop-color="#FFE380"/>
</linearGradient>
<linearGradient id="paint8_linear" x1="156.961" y1="58.6864" x2="181.313" y2="34.8797" gradientUnits="userSpaceOnUse">
<stop offset="0.16" stop-color="#0052CC"/>
<stop offset="0.25" stop-color="#0059E0"/>
<stop offset="0.36" stop-color="#0060F1"/>
<stop offset="0.48" stop-color="#0064FC"/>
<stop offset="0.62" stop-color="#0065FF"/>
<stop offset="0.67" stop-color="#0568FF"/>
<stop offset="0.72" stop-color="#1572FF"/>
<stop offset="0.79" stop-color="#2E82FF"/>
<stop offset="0.86" stop-color="#5198FF"/>
<stop offset="0.93" stop-color="#7EB4FF"/>
<stop offset="1" stop-color="#B2D4FF"/>
</linearGradient>
<linearGradient id="paint9_linear" x1="164.345" y1="85.277" x2="176.748" y2="73.1509" gradientUnits="userSpaceOnUse">
<stop offset="0.34" stop-color="#0065FF"/>
<stop offset="0.42" stop-color="#0568FF"/>
<stop offset="0.52" stop-color="#1572FF"/>
<stop offset="0.64" stop-color="#2E82FF"/>
<stop offset="0.75" stop-color="#5198FF"/>
<stop offset="0.88" stop-color="#7EB4FF"/>
<stop offset="1" stop-color="#B2D4FF"/>
</linearGradient>
<linearGradient id="paint10_linear" x1="228.512" y1="82.6529" x2="252.896" y2="41.2645" gradientUnits="userSpaceOnUse">
<stop stop-color="#091E42" stop-opacity="0.1"/>
<stop offset="1" stop-color="#091E42"/>
</linearGradient>
<linearGradient id="paint11_linear" x1="233.061" y1="63.387" x2="278.003" y2="63.387" gradientUnits="userSpaceOnUse">
<stop stop-color="#2684FF"/>
<stop offset="1" stop-color="#B2D4FF"/>
</linearGradient>
<linearGradient id="paint12_linear" x1="227.805" y1="55.4858" x2="279.909" y2="55.4858" gradientUnits="userSpaceOnUse">
<stop stop-color="#0052CC"/>
<stop offset="0.02" stop-color="#0065FF"/>
<stop offset="1" stop-color="#4C9AFF"/>
</linearGradient>
<linearGradient id="paint13_linear" x1="1727.42" y1="-4504.75" x2="4555.12" y2="-5284.14" gradientUnits="userSpaceOnUse">
<stop stop-color="#0052CC"/>
<stop offset="0.02" stop-color="#0065FF"/>
<stop offset="1" stop-color="#4C9AFF"/>
</linearGradient>
<linearGradient id="paint14_linear" x1="227.805" y1="56.1683" x2="279.909" y2="56.1683" gradientUnits="userSpaceOnUse">
<stop stop-color="#0065FF"/>
<stop offset="1" stop-color="#4C9AFF"/>
</linearGradient>
<linearGradient id="paint15_linear" x1="227.493" y1="60.527" x2="277.988" y2="46.6093" gradientUnits="userSpaceOnUse">
<stop offset="0.01" stop-color="#0065FF"/>
<stop offset="1" stop-color="#4C9AFF"/>
</linearGradient>
<linearGradient id="paint16_linear" x1="212" y1="41.3011" x2="256.942" y2="41.3011" gradientUnits="userSpaceOnUse">
<stop stop-color="#42526E"/>
<stop offset="1" stop-color="#5E6C84"/>
</linearGradient>
<clipPath id="clip0">
<path d="M212 33H278V79H212V33Z" fill="white"/>
</clipPath>
</defs>
</svg>
