<svg width="300" height="100" viewBox="0 0 300 100" fill="none" xmlns="http://www.w3.org/2000/svg">
<rect width="300" height="100" fill="white"/>
<g clip-path="url(#clip0)">
<path d="M162 16H270V85H162V16Z" fill="white" fill-opacity="0.01"/>
<path d="M212.937 85H162.744C162.547 85 162.357 84.9217 162.218 84.7824C162.078 84.6431 162 84.4542 162 84.2571V16.7429C162.011 16.5493 162.092 16.3663 162.23 16.2292C162.367 16.0921 162.55 16.0105 162.744 16H212.937C213.134 16 213.323 16.0783 213.463 16.2176C213.602 16.3569 213.681 16.5459 213.681 16.7429V84.2571C213.687 84.3564 213.672 84.4558 213.637 84.5489C213.602 84.6419 213.548 84.7264 213.477 84.7967C213.407 84.867 213.322 84.9215 213.229 84.9566C213.136 84.9916 213.036 85.0064 212.937 85ZM270 84.2571V16.7429C269.989 16.5419 269.901 16.3529 269.754 16.2147C269.608 16.0765 269.414 15.9997 269.212 16H219.063C218.862 15.9997 218.668 16.0765 218.521 16.2147C218.375 16.3529 218.287 16.5419 218.276 16.7429V84.2571C218.275 84.3585 218.296 84.4588 218.336 84.5519C218.376 84.645 218.435 84.7289 218.509 84.7985C218.582 84.8681 218.67 84.9219 218.765 84.9565C218.86 84.9912 218.962 85.006 219.063 85H269.212C269.314 85.006 269.415 84.9912 269.51 84.9565C269.606 84.9219 269.693 84.8681 269.767 84.7985C269.841 84.7289 269.899 84.645 269.939 84.5519C269.98 84.4588 270 84.3585 270 84.2571Z" fill="#CFD4DB"/>
<path d="M270 84.2571V16.7429C270 16.3326 269.667 16 269.256 16L219.046 16C218.635 16 218.302 16.3326 218.302 16.7429V84.2571C218.302 84.6674 218.635 85 219.046 85H269.256C269.667 85 270 84.6674 270 84.2571Z" fill="#0065FF"/>
<path d="M266.806 19.1899H221.426C221.015 19.1899 220.682 19.5225 220.682 19.9328V37.7968C220.682 38.2071 221.015 38.5397 221.426 38.5397H266.806C267.216 38.5397 267.549 38.2071 267.549 37.7968V19.9328C267.549 19.5225 267.216 19.1899 266.806 19.1899Z" fill="white"/>
<path d="M261.423 27.886C263.453 27.886 265.099 26.2426 265.099 24.2154C265.099 22.1881 263.453 20.5447 261.423 20.5447C259.393 20.5447 257.747 22.1881 257.747 24.2154C257.747 26.2426 259.393 27.886 261.423 27.886Z" fill="#66A3FF"/>
<path d="M251.052 21.7245H223.133V22.5985H251.052V21.7245Z" fill="#66A3FF"/>
<path d="M251.052 25.0894H223.133V25.9633H251.052V25.0894Z" fill="#66A3FF"/>
<path d="M239.63 33.5668H223.133V34.4407H239.63V33.5668Z" fill="#66A3FF"/>
<path d="M266.806 40.8208H221.426C221.015 40.8208 220.682 41.1534 220.682 41.5637V59.4276C220.682 59.8379 221.015 60.1705 221.426 60.1705H266.806C267.216 60.1705 267.549 59.8379 267.549 59.4276V41.5637C267.549 41.1534 267.216 40.8208 266.806 40.8208Z" fill="white"/>
<path d="M261.423 49.5168C263.453 49.5168 265.099 47.8734 265.099 45.8461C265.099 43.8188 263.453 42.1754 261.423 42.1754C259.393 42.1754 257.747 43.8188 257.747 45.8461C257.747 47.8734 259.393 49.5168 261.423 49.5168Z" fill="#66A3FF"/>
<path d="M251.052 43.399H223.133V44.273H251.052V43.399Z" fill="#66A3FF"/>
<path d="M251.052 46.7201H223.133V47.5941H251.052V46.7201Z" fill="#66A3FF"/>
<path d="M267.156 63.0634H221.208V82.0285H267.156V63.0634Z" fill="#3384FF"/>
<path d="M210.53 19.1899H165.151C164.74 19.1899 164.407 19.5225 164.407 19.9328V37.7968C164.407 38.2071 164.74 38.5397 165.151 38.5397H210.53C210.941 38.5397 211.274 38.2071 211.274 37.7968V19.9328C211.274 19.5225 210.941 19.1899 210.53 19.1899Z" fill="white"/>
<path d="M205.104 27.886C207.134 27.886 208.78 26.2426 208.78 24.2154C208.78 22.1881 207.134 20.5447 205.104 20.5447C203.074 20.5447 201.428 22.1881 201.428 24.2154C201.428 26.2426 203.074 27.886 205.104 27.886Z" fill="#CFD4DB"/>
<path d="M194.776 21.7245H166.857V22.5985H194.776V21.7245Z" fill="#CFD4DB"/>
<path d="M194.776 25.0894H166.857V25.9633H194.776V25.0894Z" fill="#CFD4DB"/>
<path d="M210.836 41.0393H164.888V60.0045H210.836V41.0393Z" fill="#FAFBFC"/>
<g style="mix-blend-mode:multiply" opacity="0.63">
<path d="M233.417 56.0278H218.276V75.3863H233.417C233.611 75.3758 233.794 75.2942 233.931 75.1571C234.068 75.0199 234.15 74.837 234.161 74.6434V56.7707C234.15 56.5771 234.068 56.3942 233.931 56.2571C233.794 56.12 233.611 56.0383 233.417 56.0278Z" fill="#B3BAC5"/>
</g>
<g style="mix-blend-mode:multiply" opacity="0.63">
<path d="M213.681 56.0278H188.037C187.843 56.0383 187.66 56.12 187.523 56.2571C187.386 56.3942 187.304 56.5771 187.293 56.7707V74.6434C187.304 74.837 187.386 75.0199 187.523 75.1571C187.66 75.2942 187.843 75.3758 188.037 75.3863H213.681V56.0278Z" fill="#B3BAC5"/>
</g>
<path d="M223.133 55.6345H239.674" stroke="#97A0AF" stroke-width="3.62"/>
<g style="mix-blend-mode:multiply">
<g style="mix-blend-mode:multiply">
<path d="M239.237 79.057L239.149 78.183L241.95 77.8771L243.438 77.615L243.613 78.4889L242.081 78.7511L239.237 79.057ZM234.773 79.057C233.296 78.9327 231.841 78.6245 230.441 78.1393L230.703 77.3091C232.051 77.7591 233.446 78.0524 234.861 78.183L234.773 79.057ZM247.901 77.2654L247.595 76.4351C248.95 75.9526 250.266 75.3683 251.533 74.6872L251.927 75.4737C250.631 76.1694 249.286 76.7682 247.901 77.2654ZM226.327 76.3477C225.013 75.578 223.868 74.5527 222.958 73.3325L223.658 72.8518C224.522 73.9627 225.591 74.8974 226.809 75.6048L226.327 76.3477ZM255.69 73.114L255.165 72.4148C256.04 71.803 256.828 71.1039 257.616 70.4484L258.228 71.1039L255.69 73.114ZM221.207 69.2248C221.076 68.7878 220.945 68.3509 220.857 67.9139C220.77 67.4769 220.376 66.0348 220.026 65.0298L220.857 64.7676C221.207 65.8163 221.47 66.7777 221.689 67.6954C221.908 68.6131 221.908 68.5694 222.039 69.0063L221.207 69.2248Z" fill="#A5ADBA"/>
</g>
<g style="mix-blend-mode:multiply">
<path d="M258.01 75.3427L257.135 75.2116L257.66 70.9728L253.327 70.7543L253.371 69.8804L258.622 70.1426L258.01 75.3427Z" fill="#A5ADBA"/>
</g>
</g>
<g style="mix-blend-mode:multiply">
<g style="mix-blend-mode:multiply">
<path d="M215.431 62.539C215.272 61.2164 214.979 59.9133 214.556 58.6498L215.387 58.3876C215.802 59.7007 216.109 61.0452 216.306 62.4079L215.431 62.539ZM212.849 54.717C212.16 53.4678 211.338 52.2958 210.399 51.2211L211.055 50.653C212.038 51.7705 212.903 52.9859 213.637 54.28L212.849 54.717ZM179.854 50.9152L179.198 50.3034C180.259 49.2507 181.416 48.2997 182.655 47.463L183.136 48.1622C181.955 48.9706 180.855 49.8927 179.854 50.9152ZM207.292 48.337L206.46 47.7689C205.546 47.1598 204.58 46.6333 203.572 46.1957L203.922 45.4092C204.973 45.8611 205.983 46.402 206.942 47.026L207.773 47.6378L207.292 48.337ZM186.9 46.1084L186.549 45.3218C187.337 44.9722 188.169 44.71 188.956 44.4478L190.794 44.0108L190.969 44.8848L189.219 45.2781L186.9 46.1084ZM199.502 44.8848C198.103 44.6201 196.682 44.4884 195.258 44.4915V43.6175C196.742 43.6091 198.224 43.7555 199.677 44.0545L199.502 44.8848Z" fill="#A5ADBA"/>
</g>
<g style="mix-blend-mode:multiply">
<path d="M211.799 60.223L212.324 59.5239L215.781 62.1458L218.144 58.5188L218.844 58.9995L216 63.413L211.799 60.223Z" fill="#A5ADBA"/>
</g>
</g>
<path d="M238.887 51.0026H193.507C193.096 51.0026 192.763 51.3352 192.763 51.7454V69.6094C192.763 70.0197 193.096 70.3523 193.507 70.3523H238.887C239.297 70.3523 239.631 70.0197 239.631 69.6094V51.7454C239.631 51.3352 239.297 51.0026 238.887 51.0026Z" fill="url(#paint0_linear)"/>
<path d="M233.46 59.6985C235.49 59.6985 237.136 58.0551 237.136 56.0279C237.136 54.0006 235.49 52.3572 233.46 52.3572C231.43 52.3572 229.784 54.0006 229.784 56.0279C229.784 58.0551 231.43 59.6985 233.46 59.6985Z" fill="white"/>
<path d="M223.133 53.5808H195.214V54.4548H223.133V53.5808Z" fill="white"/>
<path d="M223.133 56.9019H195.214V57.7758H223.133V56.9019Z" fill="white"/>
<path d="M211.712 65.3794H195.214V66.2534H211.712V65.3794Z" fill="white"/>
</g>
<path d="M146.127 29H31.873C30.8386 29 30 29.8374 30 30.8704V75.8475C30 76.8805 30.8386 77.7179 31.873 77.7179H146.127C147.161 77.7179 148 76.8805 148 75.8475V30.8704C148 29.8374 147.161 29 146.127 29Z" fill="url(#paint1_linear)"/>
<path d="M132.465 50.8944C137.576 50.8944 141.72 46.7567 141.72 41.6525C141.72 36.5484 137.576 32.4106 132.465 32.4106C127.354 32.4106 123.21 36.5484 123.21 41.6525C123.21 46.7567 127.354 50.8944 132.465 50.8944Z" fill="white"/>
<path d="M110.293 63.8026H40V66.0031H110.293V63.8026Z" fill="white"/>
<path d="M42.3291 47V39.9541H40.8545V47H42.3291ZM43.7744 43.1914C43.7744 44.0166 44.2822 44.5098 45.3271 44.7393L46.3037 44.959C46.7773 45.0664 46.9824 45.2324 46.9824 45.5059C46.9824 45.8623 46.6016 46.1064 46.0498 46.1064C45.4834 46.1064 45.1367 45.8867 45.0293 45.5156H43.6426C43.7402 46.5312 44.5996 47.1123 46.0205 47.1123C47.4316 47.1123 48.3936 46.4189 48.3936 45.3545C48.3936 44.5537 47.9248 44.1143 46.8799 43.8848L45.8691 43.665C45.3711 43.5527 45.1416 43.3818 45.1416 43.1084C45.1416 42.7568 45.5176 42.5176 46.0254 42.5176C46.5527 42.5176 46.8799 42.7373 46.9531 43.0938H48.2666C48.1885 42.0781 47.3828 41.5068 46.0156 41.5068C44.6729 41.5068 43.7744 42.1855 43.7744 43.1914ZM49.3408 43.1914C49.3408 44.0166 49.8486 44.5098 50.8936 44.7393L51.8701 44.959C52.3438 45.0664 52.5488 45.2324 52.5488 45.5059C52.5488 45.8623 52.168 46.1064 51.6162 46.1064C51.0498 46.1064 50.7031 45.8867 50.5957 45.5156H49.209C49.3066 46.5312 50.166 47.1123 51.5869 47.1123C52.998 47.1123 53.96 46.4189 53.96 45.3545C53.96 44.5537 53.4912 44.1143 52.4463 43.8848L51.4355 43.665C50.9375 43.5527 50.708 43.3818 50.708 43.1084C50.708 42.7568 51.084 42.5176 51.5918 42.5176C52.1191 42.5176 52.4463 42.7373 52.5195 43.0938H53.833C53.7549 42.0781 52.9492 41.5068 51.582 41.5068C50.2393 41.5068 49.3408 42.1855 49.3408 43.1914ZM60 41.624H58.5791V44.7295C58.5791 45.4668 58.1982 45.9209 57.4902 45.9209C56.8359 45.9209 56.499 45.5352 56.499 44.7734V41.624H55.0781V45.125C55.0781 46.375 55.8008 47.1123 56.9629 47.1123C57.7783 47.1123 58.2812 46.7607 58.5352 46.1357H58.623V47H60V41.624ZM64.9072 45.4814C64.7559 45.8477 64.3701 46.0527 63.8086 46.0527C63.0664 46.0527 62.5977 45.54 62.5781 44.7197V44.6465H66.2744V44.2217C66.2744 42.5225 65.3369 41.5068 63.75 41.5068C62.1484 41.5068 61.1621 42.5908 61.1621 44.3389C61.1621 46.0771 62.1289 47.1123 63.7695 47.1123C65.0879 47.1123 66.0205 46.4824 66.2305 45.4814H64.9072ZM63.7549 42.5664C64.4189 42.5664 64.8486 43.0254 64.8779 43.7627H62.583C62.6318 43.04 63.0957 42.5664 63.7549 42.5664Z" fill="#253858"/>
<path d="M81.7073 55H40.1704V57.2004H81.7073V55Z" fill="white"/>
<path d="M123 32H143V52H123V32Z" fill="white" fill-opacity="0.01"/>
<path d="M143 42.1052V41.8948C143 40.176 142.545 38.4875 141.683 36.9994C140.82 35.5113 139.579 34.2761 138.086 33.418L137.914 33.3089C136.419 32.4517 134.725 32.0006 133 32.0006C131.275 32.0006 129.581 32.4517 128.086 33.3089L127.914 33.418C126.421 34.2761 125.18 35.5113 124.317 36.9994C123.455 38.4875 123 40.176 123 41.8948V42.1052C123 43.8241 123.455 45.5125 124.317 47.0006C125.18 48.4887 126.421 49.7239 127.914 50.582L128.086 50.6911C129.581 51.5483 131.275 51.9994 133 51.9994C134.725 51.9994 136.419 51.5483 137.914 50.6911L138.086 50.582C139.579 49.7239 140.82 48.4887 141.683 47.0006C142.545 45.5125 143 43.8241 143 42.1052Z" fill="#57D9A3"/>
<path d="M136.383 47.9798C136.333 47.9491 136.277 47.9304 136.219 47.9252L133.156 47.7694L130.094 47.9252C130.036 47.9304 129.979 47.9491 129.93 47.9798L127.148 49.8185C127.08 49.8563 127.017 49.9035 126.961 49.9587C127.265 50.187 127.583 50.3953 127.914 50.582L128.086 50.6911C129.581 51.5483 131.275 51.9994 133 51.9994C134.725 51.9994 136.419 51.5483 137.914 50.6911L138.086 50.582C138.476 50.3636 138.85 50.1161 139.203 49.8419L139.164 49.8185L136.383 47.9798Z" fill="#00875A"/>
<path d="M127.555 38.4121C127.336 39.2224 127.336 41.3105 127.297 43.0869C127.274 44.0452 127.203 44.8477 127.266 45.1048C127.477 45.9073 131.899 46.4604 132.961 46.4449C134.024 46.4293 138.406 45.8527 138.641 45.0814C138.727 44.7931 138.68 44.0296 138.672 43.0869C138.664 41.6611 138.656 39.8223 138.57 38.5446L132.992 36.9941L127.555 38.4121Z" fill="#0C1F41"/>
<path d="M136.039 48.0577C135.969 48.1512 134.797 49.7094 132.859 49.5614C131.289 49.4367 130.406 48.2914 130.273 48.1122C130.664 47.8181 130.942 47.4005 131.062 46.9279C131.289 45.9307 130.656 45.1671 130.586 45.0814H135.484C135.453 45.1282 134.727 46.1254 135.188 47.1539C135.365 47.5399 135.664 47.8574 136.039 48.0577Z" fill="url(#paint2_linear)"/>
<path d="M128.984 43.0792C129.58 43.0792 130.062 42.5978 130.062 42.004C130.062 41.4102 129.58 40.9288 128.984 40.9288C128.389 40.9288 127.906 41.4102 127.906 42.004C127.906 42.5978 128.389 43.0792 128.984 43.0792Z" fill="#E4B69D"/>
<path d="M136.984 43.0792C137.58 43.0792 138.062 42.5978 138.062 42.004C138.062 41.4102 137.58 40.9288 136.984 40.9288C136.389 40.9288 135.906 41.4102 135.906 42.004C135.906 42.5978 136.389 43.0792 136.984 43.0792Z" fill="#E4B69D"/>
<path d="M137.359 41.5988C137.266 43.8972 135.422 46.5462 133.016 46.5462C130.609 46.5462 128.75 43.905 128.656 41.5988C128.555 39.0511 129.68 36.1761 133.008 36.1761C136.336 36.1761 137.469 39.0511 137.359 41.5988Z" fill="#F0D0B4"/>
<path d="M134.57 39.7445C134.733 39.6818 134.904 39.6425 135.078 39.6276C135.164 39.6198 135.25 39.6276 135.336 39.6276L135.594 39.6588C135.764 39.6965 135.927 39.7595 136.078 39.8458C136.238 39.9188 136.371 40.0383 136.461 40.1886C136.469 40.1964 136.461 40.2119 136.453 40.2197H136.438C136.274 40.1496 136.149 40.0639 136.008 39.9938C135.864 39.9234 135.712 39.8711 135.555 39.838L135.32 39.8068C135.242 39.8068 135.164 39.799 135.086 39.8068H134.969L134.852 39.8302C134.812 39.8342 134.773 39.842 134.734 39.8536L134.617 39.8847C134.598 39.8895 134.577 39.8865 134.559 39.8763C134.542 39.8662 134.529 39.8496 134.524 39.8302C134.519 39.8126 134.521 39.7939 134.53 39.7779C134.538 39.7619 134.553 39.7499 134.57 39.7445Z" fill="#253858"/>
<path d="M131.359 39.8925L131.242 39.8614C131.204 39.8499 131.165 39.842 131.125 39.838L131.008 39.8146H130.891C130.813 39.8068 130.734 39.8146 130.656 39.8146L130.422 39.8458C130.267 39.8777 130.117 39.9301 129.977 40.0016C129.836 40.0717 129.703 40.1574 129.547 40.2276C129.531 40.2276 129.523 40.2276 129.516 40.212V40.1964C129.609 40.0493 129.742 39.9307 129.898 39.8536C130.051 39.7698 130.214 39.707 130.383 39.6666L130.641 39.6354C130.734 39.6354 130.82 39.6276 130.906 39.6354C131.08 39.6511 131.251 39.6904 131.414 39.7523C131.433 39.7608 131.448 39.7757 131.456 39.7943C131.465 39.8129 131.467 39.8339 131.461 39.8536C131.453 39.8706 131.439 39.8844 131.422 39.8929C131.405 39.9013 131.386 39.9039 131.367 39.9003L131.359 39.8925Z" fill="#253858"/>
<path d="M132.352 42.8376C132.444 42.7783 132.555 42.7535 132.664 42.7675C132.694 42.7705 132.723 42.7784 132.75 42.7908L132.805 42.8142C132.835 42.8247 132.867 42.8274 132.899 42.822L133.008 42.783C133.059 42.7583 133.115 42.745 133.172 42.7441C133.275 42.7332 133.379 42.755 133.469 42.8064C133.483 42.8132 133.494 42.8249 133.5 42.8393C133.505 42.8537 133.506 42.8698 133.5 42.8843C133.493 42.8958 133.482 42.9048 133.47 42.9103C133.457 42.9159 133.443 42.9177 133.43 42.9155C133.351 42.8911 133.268 42.8858 133.188 42.8999C133.149 42.9058 133.112 42.919 133.078 42.9389L132.93 42.9934C132.87 43.0024 132.809 42.9997 132.75 42.9856L132.68 42.9466L132.633 42.9311C132.555 42.9173 132.474 42.9227 132.399 42.9466C132.391 42.949 132.384 42.9499 132.376 42.9492C132.369 42.9484 132.361 42.9462 132.355 42.9425C132.348 42.9389 132.342 42.9339 132.338 42.9279C132.333 42.9219 132.33 42.915 132.328 42.9077C132.324 42.895 132.324 42.8814 132.328 42.8688C132.333 42.8562 132.341 42.8452 132.352 42.8376Z" fill="#E4B69D"/>
<path d="M134.43 44.1309C134.016 44.0686 133.758 43.9907 133.445 44.0375H133.383C133.216 44.0763 133.042 44.0763 132.875 44.0375H132.812C132.523 43.9907 132.258 44.053 131.844 44.1232L131.453 44.1699C131.661 44.4093 131.919 44.6012 132.208 44.7328C132.497 44.8643 132.811 44.9324 133.129 44.9324C133.447 44.9324 133.761 44.8643 134.05 44.7328C134.339 44.6012 134.596 44.4093 134.805 44.1699L134.43 44.1309Z" fill="#FF7452"/>
<path d="M131.258 44.0452C131.556 44.1377 131.862 44.2029 132.172 44.24C132.789 44.3258 133.415 44.3231 134.031 44.2322C134.187 44.2166 134.336 44.1855 134.492 44.1543L134.945 44.0374C134.95 44.0344 134.956 44.0329 134.962 44.0331C134.968 44.0332 134.974 44.0351 134.978 44.0383C134.983 44.0416 134.987 44.0461 134.99 44.0515C134.992 44.0569 134.993 44.0628 134.992 44.0686C134.995 44.0731 134.996 44.0781 134.996 44.0833C134.997 44.0885 134.995 44.0937 134.993 44.0983C134.991 44.103 134.987 44.107 134.983 44.1099C134.979 44.1129 134.974 44.1148 134.969 44.1153C134.674 44.2327 134.367 44.3189 134.055 44.3725C133.74 44.4284 133.421 44.457 133.101 44.4582C132.945 44.4582 132.781 44.4504 132.625 44.4348C132.465 44.4248 132.306 44.4066 132.148 44.3803C131.834 44.3247 131.526 44.2412 131.226 44.1309C131.211 44.1153 131.195 44.092 131.203 44.0764C131.208 44.0662 131.216 44.0577 131.225 44.0522C131.235 44.0466 131.246 44.0442 131.258 44.0452Z" fill="#72594B"/>
<path d="M130.164 40.6794C130.402 40.5112 130.685 40.4164 130.977 40.4067C131.267 40.3983 131.552 40.477 131.797 40.6327C131.813 40.6437 131.824 40.6602 131.828 40.6789C131.832 40.6976 131.83 40.7172 131.82 40.734C131.81 40.7478 131.794 40.7576 131.777 40.7619C131.76 40.7661 131.743 40.7645 131.727 40.7574C131.609 40.6967 131.486 40.6472 131.359 40.6093C131.234 40.5792 131.106 40.5609 130.977 40.5548C130.845 40.5571 130.713 40.5754 130.586 40.6093C130.458 40.6438 130.335 40.6935 130.219 40.7574C130.214 40.7615 130.208 40.7645 130.202 40.766C130.196 40.7675 130.19 40.7675 130.183 40.766C130.177 40.7644 130.172 40.7614 130.167 40.7572C130.162 40.753 130.158 40.7477 130.156 40.7418C130.15 40.7323 130.147 40.7206 130.148 40.7091C130.15 40.6976 130.155 40.687 130.164 40.6794Z" fill="#172B4D"/>
<path d="M135.984 40.7573C135.868 40.6935 135.745 40.6438 135.617 40.6093C135.489 40.5764 135.358 40.5582 135.227 40.5548C135.095 40.5609 134.964 40.5792 134.836 40.6093C134.712 40.6472 134.591 40.6967 134.477 40.7573C134.468 40.7627 134.458 40.7661 134.448 40.7674C134.438 40.7687 134.428 40.7678 134.419 40.7649C134.409 40.7619 134.4 40.7569 134.393 40.7503C134.385 40.7436 134.379 40.7354 134.375 40.7262C134.368 40.7102 134.366 40.6923 134.37 40.6754C134.375 40.6584 134.385 40.6434 134.398 40.6327C134.644 40.4774 134.931 40.3989 135.222 40.4072C135.513 40.4155 135.795 40.5103 136.031 40.6794C136.039 40.6868 136.044 40.6964 136.045 40.7068C136.046 40.7172 136.044 40.7278 136.039 40.7368C136.033 40.7458 136.025 40.7527 136.015 40.7564C136.005 40.7601 135.994 40.7605 135.984 40.7573Z" fill="#172B4D"/>
<path d="M135.141 41.1235C135.279 41.1235 135.391 41.0119 135.391 40.8742C135.391 40.7365 135.279 40.6249 135.141 40.6249C135.003 40.6249 134.891 40.7365 134.891 40.8742C134.891 41.0119 135.003 41.1235 135.141 41.1235Z" fill="#172B4D"/>
<path d="M131.023 41.1235C131.162 41.1235 131.273 41.0119 131.273 40.8742C131.273 40.7365 131.162 40.6249 131.023 40.6249C130.885 40.6249 130.773 40.7365 130.773 40.8742C130.773 41.0119 130.885 41.1235 131.023 41.1235Z" fill="#172B4D"/>
<path d="M138.57 38.5446C138.43 37.6019 138.086 36.4566 137.633 35.7788C136.808 34.5496 135.527 33.6973 134.073 33.4095C132.618 33.1217 131.108 33.4218 129.875 34.2439C128.359 35.2568 127.437 37.7889 127.453 39.5185C129.719 39.7445 133.336 39.2225 134.875 37.4149C134.845 37.5347 134.806 37.652 134.758 37.7655C134.645 38.0255 134.486 38.263 134.289 38.4667C134.187 38.5684 134.077 38.6622 133.961 38.7472C133.844 38.833 133.718 38.9062 133.586 38.9654H133.578C133.554 38.977 133.535 38.9965 133.523 39.0206C133.512 39.0447 133.509 39.0719 133.516 39.0978C133.525 39.1283 133.545 39.1541 133.573 39.1701C133.6 39.186 133.633 39.1908 133.664 39.1835C133.821 39.1374 133.973 39.0748 134.117 38.9965C134.264 38.9231 134.403 38.8343 134.531 38.7316C134.798 38.5303 135.026 38.2821 135.203 37.9993C135.382 37.7117 135.508 37.3953 135.578 37.0643C135.587 37.0365 135.592 37.0077 135.594 36.9786C136.602 37.7344 137.367 39.1368 137.367 40.9989C137.672 41.1859 138.109 39.6354 138.578 39.7055C138.57 39.503 138.609 38.8017 138.57 38.5446Z" fill="#091E42"/>
<path d="M137.539 40.8353H136.867C136.881 40.7894 136.892 40.7425 136.898 40.695L136.914 40.6249V40.586C136.92 40.5685 136.923 40.5499 136.922 40.5314C136.921 40.4627 136.901 40.3955 136.866 40.3366C136.83 40.2778 136.779 40.2294 136.719 40.1964L136.617 40.1574H136.539L136.398 40.1341C136.026 40.0781 135.65 40.0417 135.273 40.025C134.898 40.0094 134.508 40.0016 134.125 40.1029C133.922 40.1483 133.736 40.2479 133.586 40.3912C133.508 40.467 133.449 40.5605 133.414 40.6639C133.398 40.7016 133.384 40.7407 133.375 40.7807C133.258 40.7205 133.129 40.6878 132.998 40.6851C132.867 40.6824 132.736 40.7098 132.617 40.7652C132.61 40.7304 132.6 40.6965 132.586 40.6639C132.551 40.5605 132.492 40.467 132.414 40.3912C132.264 40.2479 132.078 40.1483 131.875 40.1029C131.492 40.0016 131.102 40.0094 130.727 40.025C130.35 40.0417 129.974 40.0781 129.602 40.1341L129.461 40.1574H129.383L129.281 40.1964C129.221 40.2294 129.17 40.2778 129.134 40.3366C129.099 40.3955 129.079 40.4627 129.078 40.5314C129.077 40.5499 129.08 40.5685 129.086 40.586V40.6249L129.102 40.695C129.108 40.7425 129.119 40.7894 129.133 40.8353H128.469C128.436 40.8353 128.404 40.8484 128.38 40.8718C128.357 40.8952 128.344 40.9269 128.344 40.9599C128.344 40.993 128.357 41.0247 128.38 41.0481C128.404 41.0715 128.436 41.0846 128.469 41.0846H129.203L129.219 41.1236C129.351 41.4999 129.597 41.8263 129.922 42.0585C130.085 42.1726 130.268 42.257 130.461 42.3078C130.653 42.3542 130.849 42.3777 131.047 42.3779C131.243 42.3768 131.437 42.3479 131.625 42.2922C131.819 42.2394 132 42.1465 132.156 42.0195C132.314 41.8918 132.44 41.7291 132.523 41.5443C132.587 41.3853 132.624 41.2168 132.633 41.0456C132.68 41.0067 132.961 40.7963 133.367 41.0534C133.376 41.222 133.413 41.388 133.477 41.5443C133.56 41.7291 133.686 41.8918 133.844 42.0195C134 42.1465 134.181 42.2394 134.375 42.2922C134.563 42.3479 134.757 42.3768 134.953 42.3779C135.151 42.3777 135.347 42.3542 135.539 42.3078C135.732 42.257 135.915 42.1726 136.078 42.0585C136.403 41.8263 136.649 41.4999 136.781 41.1236L136.797 41.0846H137.539C137.572 41.0846 137.604 41.0715 137.627 41.0481C137.651 41.0247 137.664 40.993 137.664 40.9599C137.664 40.9269 137.651 40.8952 137.627 40.8718C137.604 40.8484 137.572 40.8353 137.539 40.8353ZM132.352 41.4742C132.282 41.6328 132.175 41.7719 132.039 41.8793C131.766 42.0897 131.398 42.1754 131.047 42.1754C130.867 42.1691 130.689 42.143 130.516 42.0975C130.348 42.0478 130.19 41.9715 130.047 41.8715C129.766 41.6615 129.556 41.3705 129.445 41.0379C129.43 40.9989 129.422 40.9521 129.406 40.9132C129.392 40.87 129.382 40.8257 129.375 40.7807C129.36 40.7378 129.35 40.6934 129.344 40.6483V40.586C129.344 40.5782 129.336 40.5626 129.336 40.5548V40.5392C129.336 40.5133 129.344 40.4879 129.357 40.4659C129.371 40.4438 129.391 40.4261 129.414 40.4146H129.508L129.641 40.399C130.005 40.3328 130.373 40.286 130.742 40.2587C131.109 40.2354 131.477 40.2276 131.82 40.3133C131.987 40.3407 132.142 40.4166 132.266 40.5314C132.323 40.5888 132.368 40.6569 132.399 40.7317C132.43 40.8066 132.446 40.8868 132.445 40.9677C132.445 41.1408 132.414 41.3125 132.352 41.4742ZM136.672 40.5548C136.672 40.5626 136.664 40.5782 136.664 40.586V40.6483C136.658 40.6934 136.648 40.7378 136.633 40.7807C136.626 40.8257 136.616 40.87 136.602 40.9132C136.586 40.9521 136.578 40.9989 136.562 41.0379C136.452 41.3705 136.242 41.6615 135.961 41.8715C135.818 41.9715 135.66 42.0478 135.492 42.0975C135.319 42.143 135.14 42.1691 134.961 42.1754C134.609 42.1754 134.242 42.0897 133.969 41.8793C133.833 41.7719 133.725 41.6328 133.656 41.4742C133.594 41.3125 133.562 41.1408 133.562 40.9677C133.562 40.8868 133.578 40.8066 133.609 40.7317C133.64 40.6569 133.685 40.5888 133.742 40.5314C133.866 40.4166 134.021 40.3407 134.187 40.3133C134.531 40.2276 134.898 40.2354 135.266 40.2587C135.637 40.278 136.008 40.317 136.375 40.3756L136.508 40.3912H136.594C136.617 40.4027 136.637 40.4205 136.651 40.4425C136.664 40.4645 136.672 40.4899 136.672 40.5158V40.5548Z" fill="#006644"/>
<defs>
<linearGradient id="paint0_linear" x1="199.879" y1="77.0076" x2="232.513" y2="44.3275" gradientUnits="userSpaceOnUse">
<stop stop-color="#64E6A4"/>
<stop offset="0.21" stop-color="#69E7A7"/>
<stop offset="0.47" stop-color="#78EBB1"/>
<stop offset="0.75" stop-color="#91F1C1"/>
<stop offset="1" stop-color="#ADF8D3"/>
</linearGradient>
<linearGradient id="paint1_linear" x1="47.9148" y1="94.4743" x2="130.079" y2="12.1939" gradientUnits="userSpaceOnUse">
<stop stop-color="#64E6A4"/>
<stop offset="0.21" stop-color="#69E7A7"/>
<stop offset="0.47" stop-color="#78EBB1"/>
<stop offset="0.75" stop-color="#91F1C1"/>
<stop offset="1" stop-color="#ADF8D3"/>
</linearGradient>
<linearGradient id="paint2_linear" x1="133.156" y1="45.9883" x2="133.156" y2="50.3646" gradientUnits="userSpaceOnUse">
<stop stop-color="#ECC19C"/>
<stop offset="1" stop-color="#F1DBCB"/>
</linearGradient>
<clipPath id="clip0">
<path d="M162 16H270V85H162V16Z" fill="white"/>
</clipPath>
</defs>
</svg>
