<svg width="14" height="17" viewBox="0 0 14 17" fill="none" xmlns="http://www.w3.org/2000/svg">
<path d="M3.68286 6.83309H6.05314C6.25768 6.83309 6.42349 6.67765 6.42349 6.48588C6.42349 6.29412 6.25768 6.13867 6.05314 6.13867H3.68286C3.47831 6.13867 3.3125 6.29412 3.3125 6.48588C3.3125 6.67765 3.47834 6.83309 3.68286 6.83309Z" fill="#6D6D6D" stroke="#6D6D6D" stroke-width="0.2"/>
<path d="M8.27532 8.39648H3.68286C3.47831 8.39648 3.3125 8.55193 3.3125 8.7437C3.3125 8.93546 3.47831 9.09091 3.68286 9.09091H8.27529C8.47984 9.09091 8.64565 8.93546 8.64565 8.7437C8.64565 8.55193 8.47984 8.39648 8.27532 8.39648Z" fill="#6D6D6D" stroke="#6D6D6D" stroke-width="0.2"/>
<path d="M8.27532 10.6523H3.68286C3.47831 10.6523 3.3125 10.8078 3.3125 10.9996C3.3125 11.1913 3.47831 11.3468 3.68286 11.3468H8.27529C8.47984 11.3468 8.64565 11.1913 8.64565 10.9996C8.64565 10.8078 8.47984 10.6523 8.27532 10.6523Z" fill="#6D6D6D" stroke="#6D6D6D" stroke-width="0.2"/>
<path d="M13.5735 13.2571V2.3199C13.6044 1.62059 13.0249 1.03014 12.2789 1.0011C12.2475 0.999871 12.216 0.999672 12.1846 1.0005H4.22191C3.40712 1.0005 2.6479 1.55603 2.6479 2.3199V2.91015H1.9998C1.15253 2.9276 0.464522 3.55742 0.425781 4.35107V15.3056C0.449883 15.5172 0.590385 15.7016 0.79614 15.7917C1.00913 15.8799 1.25784 15.8387 1.42574 15.6875L2.55532 14.7327L3.90713 15.8611C4.00797 15.9488 4.13997 15.9983 4.27749 16C4.41434 15.9952 4.54524 15.9461 4.64785 15.8611L5.98113 14.7327L7.3144 15.8611C7.5253 16.0379 7.84423 16.0379 8.05512 15.8611L9.40694 14.7327L10.518 15.6875C10.6525 15.8427 10.8857 15.8865 11.0735 15.7917C11.2575 15.6927 11.3653 15.5041 11.3513 15.3056V12.8404L11.5735 12.6841L12.7031 13.639C12.8075 13.7324 12.9477 13.7824 13.092 13.7779C13.156 13.7833 13.2203 13.7712 13.2771 13.7431C13.4718 13.6523 13.5888 13.4604 13.5735 13.2571ZM10.6106 14.9237L9.74026 14.1251C9.54414 13.9371 9.22419 13.9295 9.01804 14.1077L7.66623 15.2362L6.35145 14.1077C6.13496 13.9452 5.82723 13.9452 5.61073 14.1077L4.27746 15.2362L2.92564 14.1077C2.6921 13.9283 2.35378 13.9357 2.12938 14.1251L1.16646 14.9237V4.3511C1.2035 3.94079 1.56085 3.62066 1.99976 3.60461H9.96246C10.3699 3.60461 10.6106 3.96917 10.6106 4.3511V14.9237ZM12.8327 2.3199V12.8751L11.9069 12.0765C11.7587 11.9376 11.7217 11.9029 11.3513 11.955V4.3511C11.3513 3.58723 10.7773 2.91018 9.96249 2.91018H3.38862V2.3199C3.38862 1.93796 3.81452 1.69493 4.22191 1.69493H12.1846C12.5214 1.67439 12.8122 1.91367 12.8341 2.22942C12.8362 2.25956 12.8358 2.28983 12.8327 2.3199Z" fill="#6D6D6D" stroke="#6D6D6D" stroke-width="0.2"/>
</svg>
