<svg width="15" height="18" viewBox="0 0 15 18" fill="none" xmlns="http://www.w3.org/2000/svg">
<path d="M7.66797 9C6.56895 9 5.61741 8.60582 4.83971 7.82809C4.06227 7.05049 3.66797 6.09905 3.66797 4.99987C3.66797 3.90107 4.06214 2.94951 4.83984 2.17166C5.61754 1.39418 6.56908 1 7.66797 1C8.76711 1 9.71852 1.39418 10.4961 2.17178C11.2737 2.94938 11.668 3.90095 11.668 4.99987C11.668 6.09905 11.2737 7.05062 10.4961 7.82822C9.71827 8.60569 8.76673 9 7.66797 9V9ZM9.80785 2.85993C9.21121 2.26326 8.5113 1.97323 7.66797 1.97323C6.82476 1.97323 6.12473 2.26326 5.52796 2.85993C4.93132 3.45671 4.64117 4.15677 4.64117 4.99987C4.64117 5.84323 4.93132 6.54316 5.52796 7.13995C6.12473 7.73674 6.82476 8.02677 7.66797 8.02677C8.51105 8.02677 9.21095 7.73661 9.80785 7.13995C10.4046 6.54329 10.6948 5.84323 10.6948 4.99987C10.6948 4.15677 10.4046 3.45671 9.80785 2.85993Z" fill="#074D63" stroke="#074D63" stroke-width="0.4"/>
<path d="M1.03101 13.4245C1.05259 13.123 1.09624 12.794 1.1605 12.4467C1.22536 12.0967 1.30888 11.7659 1.40886 11.4636C1.51226 11.151 1.6526 10.8424 1.82635 10.5467C2.00643 10.2397 2.2181 9.97239 2.45562 9.75243C2.70399 9.52232 3.00807 9.33731 3.35972 9.20236C3.71014 9.06812 4.09848 9.00012 4.51389 9.00012C4.67703 9.00012 4.8348 9.06494 5.1395 9.25703C5.32703 9.37545 5.54638 9.5124 5.79121 9.66388C6.00056 9.79305 6.28416 9.91406 6.63446 10.0236C6.97623 10.1307 7.32323 10.185 7.66585 10.185C8.00823 10.185 8.35523 10.1307 8.69724 10.0236C9.04718 9.91418 9.3309 9.79316 9.53989 9.664C9.7824 9.51394 10.0019 9.37698 10.1922 9.25691C10.4967 9.06482 10.6544 9 10.8176 9C11.2331 9 11.6213 9.06812 11.9716 9.20248C12.323 9.3372 12.6272 9.5222 12.8758 9.75255C13.1134 9.97262 13.325 10.2398 13.505 10.5467C13.6785 10.8424 13.819 11.1509 13.9224 11.4637C14.0222 11.766 14.1057 12.0967 14.1706 12.4467C14.235 12.7936 14.2785 13.1226 14.3001 13.4249C14.3213 13.7204 14.332 14.0279 14.332 14.3387C14.332 15.1465 14.0668 15.8005 13.5439 16.2828C13.0274 16.7587 12.3441 17 11.5129 17H3.8178C2.98686 17 2.30357 16.7587 1.78696 16.2828C1.26389 15.8008 0.998698 15.1466 0.998698 14.3386C0.99882 14.0268 1.00967 13.7192 1.03101 13.4245V13.4245ZM2.4327 15.6257C2.77397 15.9402 3.22706 16.0931 3.81792 16.0931H11.5129C12.1039 16.0931 12.557 15.9402 12.8982 15.6258C13.2328 15.3173 13.3955 14.8962 13.3955 14.3387C13.3955 14.0487 13.3856 13.7624 13.3659 13.4876C13.3466 13.2179 13.3072 12.9217 13.2488 12.6069C13.1911 12.296 13.1177 12.0043 13.0304 11.7402C12.9467 11.4869 12.8324 11.2362 12.6908 10.9946C12.5555 10.7644 12.4 10.5668 12.2283 10.4077C12.0677 10.2588 11.8653 10.137 11.6268 10.0456C11.4062 9.96105 11.1584 9.91477 10.8893 9.90781C10.8565 9.92469 10.7981 9.95692 10.7034 10.0167C10.5109 10.1382 10.289 10.2768 10.0437 10.4285C9.76716 10.5992 9.41089 10.7534 8.98524 10.8865C8.55008 11.0227 8.10626 11.0919 7.66573 11.0919C7.2252 11.0919 6.78126 11.0227 6.34635 10.8866C5.92033 10.7533 5.56418 10.5992 5.28728 10.4282C5.03623 10.2729 4.82054 10.1383 4.62801 10.0167C4.5334 9.95704 4.47499 9.92469 4.44219 9.90781C4.17298 9.91477 3.9251 9.96105 3.70441 10.0456C3.46604 10.137 3.26364 10.2589 3.10306 10.4077C2.93138 10.5667 2.7758 10.7643 2.64058 10.9947C2.49878 11.2362 2.38441 11.487 2.30077 11.7401C2.21335 12.0045 2.13982 12.2962 2.08227 12.6068C2.02399 12.9221 1.98449 13.2185 1.96522 13.4877V13.4879C1.94535 13.7617 1.93535 14.0479 1.93523 14.3387C1.93535 14.8963 2.098 15.3173 2.4327 15.6257V15.6257Z" fill="#074D63" stroke="#074D63" stroke-width="0.4"/>
</svg>
