<svg width="14" height="14" viewBox="0 0 14 14" fill="none" xmlns="http://www.w3.org/2000/svg">
<path d="M6.80702 14C6.35705 14.0009 5.91832 13.8595 5.55351 13.5961C5.18871 13.3327 4.9165 12.9607 4.77579 12.5333H1.3773C1.15838 12.5335 0.943513 12.4743 0.755577 12.3621C0.567641 12.2498 0.413676 12.0887 0.310079 11.8958C-0.519501 10.3557 0.534277 9.43202 0.930824 9.08444C1.02204 9.00427 1.15934 8.88377 1.18863 8.83192L1.19151 8.82664L1.21407 8.78823L1.21839 8.78103C1.42195 8.45554 1.52564 7.35279 1.56981 6.88231L1.57317 6.85111C1.58085 6.76613 1.58854 6.685 1.5967 6.60771C1.5967 6.59858 1.5967 6.58706 1.60006 6.57506V6.56018C1.74408 5.54865 2.10654 4.08632 3.00669 2.86739C3.58807 2.08054 4.30291 1.52317 5.13201 1.20247C5.2502 0.852022 5.47535 0.547483 5.77576 0.331759C6.07617 0.116036 6.4367 0 6.80654 0C7.17638 0 7.5369 0.116036 7.83731 0.331759C8.13772 0.547483 8.36288 0.852022 8.48106 1.20247C9.31352 1.52173 10.0269 2.08102 10.6097 2.86691C11.5104 4.08632 11.8719 5.54673 12.0164 6.55682V6.56642C12.0188 6.58562 12.0202 6.59858 12.0212 6.61155C12.0293 6.69412 12.0385 6.78582 12.0471 6.88231C12.0918 7.35327 12.195 8.45554 12.3971 8.77863L12.4009 8.78487C12.4129 8.80408 12.4216 8.81944 12.4297 8.83288C12.46 8.88425 12.5958 9.00331 12.6861 9.08252C13.0826 9.43058 14.1364 10.3543 13.3068 11.8944C13.2036 12.0871 13.0501 12.2483 12.8626 12.3608C12.6751 12.4733 12.4607 12.533 12.242 12.5333H8.83776C8.69492 12.9593 8.42224 13.3299 8.05801 13.5929C7.69378 13.856 7.2563 13.9983 6.80702 14ZM2.19344 9.39602C2.06766 9.61973 1.8761 9.78776 1.69079 9.95051C1.23087 10.3533 0.957228 10.6682 1.32449 11.3499C1.32955 11.3595 1.33716 11.3675 1.34648 11.373C1.35581 11.3785 1.36647 11.3813 1.3773 11.3812H5.13009C5.29862 11.3804 5.46178 11.4404 5.58964 11.5502C5.7175 11.6599 5.80149 11.8121 5.82621 11.9789C5.82621 11.9942 5.83101 12.0086 5.83341 12.0216V12.0321C5.87404 12.2636 5.99592 12.4729 6.17713 12.6224C6.35833 12.772 6.58697 12.852 6.82189 12.848C7.05681 12.844 7.28259 12.7563 7.45861 12.6007C7.63463 12.445 7.74932 12.2317 7.78206 11.999C7.78206 11.9856 7.78638 11.9707 7.78974 11.9553V11.9539C7.82101 11.7934 7.90706 11.6488 8.03316 11.5448C8.15926 11.4408 8.31758 11.3838 8.48106 11.3836H12.242C12.2529 11.3836 12.2636 11.3807 12.2729 11.3751C12.2822 11.3695 12.2898 11.3615 12.2948 11.3519C12.6616 10.6706 12.3884 10.3557 11.929 9.95339C11.7423 9.78968 11.5493 9.62069 11.4244 9.3965L11.4196 9.38786C11.1018 8.87561 10.9876 7.92361 10.9021 6.99273C10.8935 6.89671 10.8848 6.80886 10.8767 6.72581V6.71668C10.7504 5.83766 10.4412 4.57744 9.6851 3.55439C9.1959 2.89236 8.59436 2.44252 7.89728 2.21832C7.77415 2.17949 7.66415 2.10737 7.57943 2.00994C7.49471 1.91251 7.43856 1.79356 7.4172 1.66623C7.39294 1.5231 7.31879 1.39318 7.20789 1.2995C7.09699 1.20582 6.95651 1.15442 6.81134 1.15442C6.66617 1.15442 6.52568 1.20582 6.41478 1.2995C6.30389 1.39318 6.22974 1.5231 6.20548 1.66623C6.18403 1.79348 6.12785 1.91232 6.04313 2.00966C5.95842 2.107 5.84846 2.17904 5.72539 2.21784C5.0264 2.44012 4.42485 2.88948 3.93661 3.55247C3.18048 4.57552 2.87083 5.83718 2.74457 6.71764V6.72292C2.73737 6.7983 2.72969 6.87751 2.72201 6.95961L2.71913 6.99033C2.63175 7.92025 2.51941 8.87129 2.20112 9.38642L2.19344 9.39602Z" fill="#6D6D6D"/>
</svg>
