<svg width="14" height="14" viewBox="0 0 14 14" fill="none" xmlns="http://www.w3.org/2000/svg">
<path d="M7 0C3.1313 0 0 3.13078 0 7C0 10.8687 3.13078 14 7 14C10.8687 14 14 10.8692 14 7C14 3.1313 10.8692 0 7 0ZM7 12.9062C3.73579 12.9062 1.09375 10.2647 1.09375 7C1.09375 3.73579 3.73535 1.09375 7 1.09375C10.2642 1.09375 12.9062 3.73535 12.9062 7C12.9062 10.2642 10.2647 12.9062 7 12.9062Z" fill="#6D6D6D"/>
<path d="M7.49294 9V7.48426H8.99566V6.51574H7.49294V5H6.50271V6.51574H5V7.48426H6.50271V9H7.49294Z" fill="#6D6D6D"/>
</svg>
