<svg width="22" height="22" viewBox="0 0 22 22" fill="none" xmlns="http://www.w3.org/2000/svg">
<g clip-path="url(#clip0)">
<path d="M11.0365 1.86367L19.2592 1.86367C19.7635 1.86367 20.1728 2.27299 20.1728 2.77727L20.1728 19.2225C20.1728 19.7268 19.7634 20.1361 19.2592 20.1361L11.0365 20.1361C10.5313 20.1361 10.1229 20.5445 10.1229 21.0497C10.1229 21.5549 10.5313 21.9634 11.0365 21.9634L19.2592 21.9634C20.7703 21.9634 22 20.7336 22 19.2225L22 2.77732C22 1.26619 20.7703 0.0364705 19.2592 0.0364707L11.0365 0.0364714C10.5313 0.0364714 10.1229 0.444846 10.1229 0.950072C10.1229 1.4553 10.5313 1.86367 11.0365 1.86367Z" fill="#074D63"/>
<path d="M0.272647 11.6503L5.82747 17.132C6.18562 17.4865 6.76484 17.4819 7.11933 17.1228C7.47382 16.7638 7.47017 16.1855 7.11018 15.831L3.14051 11.9134L13.7778 11.9134C14.283 11.9134 14.6914 11.505 14.6914 10.9998C14.6914 10.4946 14.283 10.0861 13.7778 10.0861L3.14051 10.0861L7.11017 6.16856C7.47012 5.81407 7.47287 5.23575 7.11933 4.8767C6.94028 4.6958 6.70455 4.60445 6.46882 4.60445C6.23675 4.60445 6.00472 4.69215 5.82747 4.86759L0.272647 10.3493C0.0990537 10.5211 0.000398055 10.755 0.000398077 10.9998C0.000398098 11.2446 0.0981516 11.4776 0.272647 11.6503Z" fill="#074D63"/>
</g>
<defs>
<clipPath id="clip0">
<rect width="22" height="22" fill="white" transform="translate(22 22) rotate(180)"/>
</clipPath>
</defs>
</svg>
