<svg width="51" height="44" viewBox="0 0 51 44" fill="none" xmlns="http://www.w3.org/2000/svg">
<path d="M25.2945 14.1906C29.2131 14.1906 32.3898 11.0139 32.3898 7.09529C32.3898 3.17667 29.2131 0 25.2945 0C21.3759 0 18.1992 3.17667 18.1992 7.09529C18.1992 11.0139 21.3759 14.1906 25.2945 14.1906Z" fill="#16BBD5"/>
<path d="M24.5577 4.7457C24.0969 4.46926 23.7744 4.69963 23.7744 5.20643V8.98444C23.7744 9.49125 24.143 9.72162 24.5577 9.44518L27.8289 7.55617C28.2896 7.27973 28.2896 6.91115 27.8289 6.63471L24.5577 4.7457Z" fill="white"/>
<path d="M50.3581 20.687C48.377 27.8744 41.7885 33.1268 34.0021 33.1268C30.823 33.1268 27.8283 32.2514 25.2942 30.731C21.977 28.7498 19.3969 25.6629 18.0607 22.0231C17.9225 21.6085 17.7843 21.1938 17.6461 20.7792C17.6 20.5488 17.5079 20.3184 17.4618 20.0881C17.3696 19.8116 17.2775 19.5813 17.1853 19.3048C16.5864 18.6598 16.1717 17.9687 15.5267 17.2315C14.4209 15.7111 12.7623 14.6053 10.9194 14.0985C10.2743 13.9603 9.62932 13.8682 8.93822 13.8682C4.92984 13.8682 1.56649 16.4943 0.41466 20.1341C0.368586 20.2724 0.322513 20.4566 0.27644 20.5949C0.27644 20.6409 0.27644 20.6409 0.230366 20.687C0.0921466 21.332 0 22.0692 0 22.7603C0 23.3593 0.0460733 23.9582 0.184293 24.5111C3.04084 35.7069 13.1309 44.0001 25.2021 44.0001C26.2618 44.0001 27.3215 43.954 28.3351 43.8158C39.0702 42.5718 47.7319 34.7394 50.3581 24.465C50.4503 24.0504 50.5424 23.5896 50.5885 23.1289C50.5885 22.9907 50.5885 22.8525 50.5885 22.7142C50.5885 22.0231 50.4963 21.332 50.3581 20.687Z" fill="#FAD038"/>
<path d="M49.1606 17.8764C48.4234 16.6785 47.4098 15.6649 46.2119 14.9738C44.9679 14.2366 43.4475 13.7759 41.881 13.7759C41.8349 13.7759 41.7889 13.7759 41.7428 13.7759C38.9784 13.822 36.5826 15.1581 35.0622 17.2314C32.8506 20.5487 29.6255 23.4973 25.525 23.5434C22.1156 23.6356 19.3051 21.6544 17.1396 19.2586C17.2318 19.489 17.3239 19.7654 17.4161 20.0418C17.4622 20.2722 17.5543 20.5026 17.6004 20.7329C17.7386 21.1476 17.8768 21.5623 18.015 21.9769C19.3512 25.6628 21.9313 28.7036 25.2485 30.6848C27.7826 32.2052 30.7773 33.0806 33.9564 33.0806C41.7428 33.0806 48.3313 27.8282 50.3124 20.6869C50.1281 19.6733 49.7135 18.7518 49.1606 17.8764Z" fill="#E4BA2F"/>
</svg>
