<svg width="20" height="20" viewBox="0 0 20 20" fill="none" xmlns="http://www.w3.org/2000/svg">
<g clip-path="url(#clip0)">
<path d="M2.69383 11.4756C1.20848 11.4756 0 12.6841 0 14.1694V17.3061C0 18.7915 1.20848 20 2.69387 20C4.17926 20 5.3877 18.7915 5.3877 17.3061V14.1694C5.3877 12.6841 4.17922 11.4756 2.69383 11.4756ZM3.82516 17.3061C3.82516 17.9299 3.31766 18.4375 2.69383 18.4375C2.07004 18.4375 1.5625 17.9299 1.5625 17.3061V14.1694C1.5625 13.5456 2.07004 13.0381 2.69387 13.0381C3.3177 13.0381 3.8252 13.5456 3.82516 14.1694V17.3061Z" fill="white"/>
<path d="M9.99953 0C8.51414 0 7.30566 1.20848 7.30566 2.69387V17.3061C7.30566 18.7915 8.51414 20 9.99953 20C11.4849 20 12.6934 18.7915 12.6934 17.3061V2.69387C12.6934 1.20848 11.4849 0 9.99953 0ZM11.1309 17.3061C11.1309 17.93 10.6234 18.4375 9.99953 18.4375C9.3757 18.4375 8.86816 17.93 8.86816 17.3061V2.69387C8.86816 2.07 9.3757 1.5625 9.99953 1.5625C10.6234 1.5625 11.1309 2.07 11.1309 2.69387V17.3061Z" fill="white"/>
<path d="M17.3061 5.73779C15.8208 5.73779 14.6123 6.94627 14.6123 8.43166V17.3061C14.6123 18.7915 15.8208 20 17.3062 20C18.7915 20 20 18.7915 20 17.3062V8.43166C20 6.94627 18.7915 5.73779 17.3061 5.73779ZM18.4375 17.3062C18.4375 17.93 17.93 18.4375 17.3061 18.4375C16.6823 18.4375 16.1748 17.93 16.1748 17.3062V8.43166C16.1748 7.80779 16.6823 7.30029 17.3062 7.30029C17.93 7.30029 18.4375 7.80779 18.4375 8.43166V17.3062Z" fill="white"/>
</g>
<defs>
<clipPath id="clip0">
<rect width="20" height="20" fill="white"/>
</clipPath>
</defs>
</svg>
