<svg width="24" height="24" viewBox="0 0 24 24" fill="none" xmlns="http://www.w3.org/2000/svg">
<g clip-path="url(#clip0)">
<path d="M23.7509 5.77268C23.5964 5.68111 23.4053 5.67754 23.2476 5.76354L17.741 8.77029V6.9662C17.7394 5.56273 16.6021 4.42542 15.1986 4.42383H2.54237C1.1389 4.42542 0.00158898 5.56273 0 6.9662V17.0046C0.00158898 18.4081 1.1389 19.5454 2.54237 19.547H15.1986C16.6021 19.5454 17.7394 18.4081 17.741 17.0046V15.2333L23.2478 18.24C23.4053 18.326 23.5966 18.3227 23.7509 18.2311C23.9055 18.1393 24 17.9731 24 17.7937V6.20984C24 6.03029 23.9053 5.86424 23.7509 5.77268ZM16.7236 17.0048C16.7229 17.847 16.0404 18.5292 15.1982 18.5302H2.54237C1.70021 18.5292 1.01794 17.847 1.01695 17.0048V6.9662C1.01794 6.12424 1.70021 5.44177 2.54237 5.44078H15.1986C16.0406 5.44177 16.7231 6.12424 16.724 6.9662L16.7236 17.0048ZM22.983 16.9369L17.741 14.0747V9.92886L22.983 7.0669V16.9369Z" fill="white" stroke="white" stroke-linecap="round"/>
</g>
<defs>
<clipPath id="clip0">
<rect width="24" height="24" fill="white"/>
</clipPath>
</defs>
</svg>
