<svg width="14" height="14" viewBox="0 0 14 14" fill="none" xmlns="http://www.w3.org/2000/svg">
<g clip-path="url(#clip0)">
<path d="M13.9905 1.41273C14.0587 1.09502 13.7473 0.827137 13.4434 0.943074L0.263865 5.97427C0.105246 6.03484 0.000328894 6.18687 7.71843e-07 6.35665C-0.00032735 6.52645 0.103988 6.67889 0.262389 6.74006L3.96478 8.16998V12.6738C3.96478 12.8638 4.09523 13.0289 4.28008 13.0728C4.46369 13.1165 4.65515 13.0291 4.74122 12.8584L6.27249 9.81975L10.0094 12.593C10.2367 12.7617 10.5634 12.6544 10.6461 12.3833C14.1351 0.943976 13.9843 1.44146 13.9905 1.41273V1.41273ZM10.7371 2.85422L4.3168 7.42657L1.55434 6.35968L10.7371 2.85422ZM4.78508 8.10012L10.3814 4.11462C5.56585 9.19476 5.81735 8.92737 5.79635 8.95564C5.76515 8.99762 5.85063 8.83402 4.78508 10.9485V8.10012ZM10.0311 11.5877L6.74184 9.14656L12.6893 2.87227L10.0311 11.5877Z" fill="#6D6D6D"/>
</g>
<defs>
<clipPath id="clip0">
<rect width="14" height="14" fill="white"/>
</clipPath>
</defs>
</svg>
