<svg width="15" height="17" viewBox="0 0 15 17" fill="none" xmlns="http://www.w3.org/2000/svg">
<path d="M4.25903 6.83358H6.62931C6.83386 6.83358 6.99967 6.67814 6.99967 6.48637C6.99967 6.29461 6.83386 6.13916 6.62931 6.13916H4.25903C4.05448 6.13916 3.88867 6.29461 3.88867 6.48637C3.88867 6.67814 4.05452 6.83358 4.25903 6.83358Z" fill="#6D6D6D" stroke="#6D6D6D" stroke-width="0.2"/>
<path d="M8.85149 8.396H4.25903C4.05448 8.396 3.88867 8.55144 3.88867 8.74321C3.88867 8.93497 4.05448 9.09042 4.25903 9.09042H8.85146C9.05601 9.09042 9.22182 8.93497 9.22182 8.74321C9.22182 8.55144 9.05601 8.396 8.85149 8.396Z" fill="#6D6D6D" stroke="#6D6D6D" stroke-width="0.2"/>
<path d="M8.85149 10.6528H4.25903C4.05448 10.6528 3.88867 10.8083 3.88867 11C3.88867 11.1918 4.05448 11.3473 4.25903 11.3473H8.85146C9.05601 11.3473 9.22182 11.1918 9.22182 11C9.22182 10.8083 9.05601 10.6528 8.85149 10.6528Z" fill="#6D6D6D" stroke="#6D6D6D" stroke-width="0.2"/>
<path d="M14.1477 13.2571V2.3199C14.1787 1.62059 13.5991 1.03014 12.8531 1.0011C12.8217 0.999871 12.7903 0.999672 12.7589 1.0005H4.79613C3.98134 1.0005 3.22212 1.55603 3.22212 2.3199V2.91015H2.57402C1.72675 2.9276 1.03874 3.55742 1 4.35107V15.3056C1.0241 15.5172 1.1646 15.7016 1.37036 15.7917C1.58334 15.8799 1.83206 15.8387 1.99996 15.6875L3.12954 14.7327L4.48135 15.8611C4.58219 15.9488 4.71419 15.9983 4.85171 16C4.98856 15.9952 5.11946 15.9461 5.22207 15.8611L6.55535 14.7327L7.88862 15.8611C8.09952 16.0379 8.41845 16.0379 8.62934 15.8611L9.98116 14.7327L11.0922 15.6875C11.2267 15.8427 11.4599 15.8865 11.6478 15.7917C11.8317 15.6927 11.9395 15.5041 11.9255 15.3056V12.8404L12.1477 12.6841L13.2773 13.639C13.3818 13.7324 13.5219 13.7824 13.6662 13.7779C13.7302 13.7833 13.7945 13.7712 13.8513 13.7431C14.046 13.6523 14.163 13.4604 14.1477 13.2571ZM11.1848 14.9237L10.3145 14.1251C10.1184 13.9371 9.7984 13.9295 9.59226 14.1077L8.24045 15.2362L6.92567 14.1077C6.70917 13.9452 6.40145 13.9452 6.18495 14.1077L4.85167 15.2362L3.49986 14.1077C3.26632 13.9283 2.928 13.9357 2.7036 14.1251L1.74068 14.9237V4.3511C1.77772 3.94079 2.13507 3.62066 2.57398 3.60461H10.5367C10.9441 3.60461 11.1848 3.96917 11.1848 4.3511V14.9237ZM13.407 2.3199V12.8751L12.4811 12.0765C12.3329 11.9376 12.2959 11.9029 11.9256 11.955V4.3511C11.9256 3.58723 11.3515 2.91018 10.5367 2.91018H3.96283V2.3199C3.96283 1.93796 4.38873 1.69493 4.79613 1.69493H12.7588C13.0956 1.67439 13.3864 1.91367 13.4083 2.22942C13.4104 2.25956 13.41 2.28983 13.407 2.3199Z" fill="#6D6D6D" stroke="#6D6D6D" stroke-width="0.2"/>
</svg>
