<svg width="15" height="18" viewBox="0 0 15 18" fill="none" xmlns="http://www.w3.org/2000/svg">
<path d="M7.66699 9C6.56797 9 5.61644 8.60582 4.83874 7.82809C4.06129 7.05049 3.66699 6.09905 3.66699 4.99987C3.66699 3.90107 4.06116 2.94951 4.83886 2.17166C5.61656 1.39418 6.5681 1 7.66699 1C8.76614 1 9.71755 1.39418 10.4951 2.17178C11.2727 2.94938 11.667 3.90095 11.667 4.99987C11.667 6.09905 11.2727 7.05062 10.4951 7.82822C9.71729 8.60569 8.76576 9 7.66699 9V9ZM9.80687 2.85993C9.21023 2.26326 8.51032 1.97323 7.66699 1.97323C6.82379 1.97323 6.12375 2.26326 5.52699 2.85993C4.93034 3.45671 4.64019 4.15677 4.64019 4.99987C4.64019 5.84323 4.93034 6.54316 5.52699 7.13995C6.12375 7.73674 6.82379 8.02677 7.66699 8.02677C8.51007 8.02677 9.20998 7.73661 9.80687 7.13995C10.4036 6.54329 10.6938 5.84323 10.6938 4.99987C10.6938 4.15677 10.4036 3.45671 9.80687 2.85993Z" fill="#074D63" stroke="#074D63" stroke-width="0.4"/>
<path d="M1.03199 13.4245C1.05357 13.123 1.09722 12.794 1.16147 12.4467C1.22634 12.0967 1.30986 11.7659 1.40984 11.4636C1.51324 11.151 1.65358 10.8424 1.82732 10.5467C2.00741 10.2397 2.21908 9.97239 2.45659 9.75243C2.70496 9.52232 3.00905 9.33731 3.36069 9.20236C3.71111 9.06812 4.09945 9.00012 4.51486 9.00012C4.678 9.00012 4.83578 9.06494 5.14048 9.25703C5.328 9.37545 5.54735 9.5124 5.79218 9.66388C6.00153 9.79305 6.28514 9.91406 6.63544 10.0236C6.9772 10.1307 7.32421 10.185 7.66683 10.185C8.0092 10.185 8.35621 10.1307 8.69822 10.0236C9.04815 9.91418 9.33188 9.79316 9.54086 9.664C9.78338 9.51394 10.0029 9.37698 10.1932 9.25691C10.4976 9.06482 10.6554 9 10.8186 9C11.2341 9 11.6223 9.06812 11.9726 9.20248C12.324 9.3372 12.6282 9.5222 12.8768 9.75255C13.1143 9.97262 13.326 10.2398 13.506 10.5467C13.6795 10.8424 13.8199 11.1509 13.9233 11.4637C14.0232 11.766 14.1067 12.0967 14.1716 12.4467C14.236 12.7936 14.2795 13.1226 14.3011 13.4249C14.3223 13.7204 14.333 14.0279 14.333 14.3387C14.333 15.1465 14.0678 15.8005 13.5449 16.2828C13.0284 16.7587 12.3451 17 11.5139 17H3.81878C2.98784 17 2.30455 16.7587 1.78794 16.2828C1.26487 15.8008 0.999675 15.1466 0.999675 14.3386C0.999797 14.0268 1.01065 13.7192 1.03199 13.4245V13.4245ZM2.43367 15.6257C2.77495 15.9402 3.22803 16.0931 3.8189 16.0931H11.5139C12.1049 16.0931 12.558 15.9402 12.8991 15.6258C13.2338 15.3173 13.3965 14.8962 13.3965 14.3387C13.3965 14.0487 13.3866 13.7624 13.3668 13.4876C13.3476 13.2179 13.3082 12.9217 13.2498 12.6069C13.1921 12.296 13.1187 12.0043 13.0314 11.7402C12.9477 11.4869 12.8334 11.2362 12.6917 10.9946C12.5565 10.7644 12.4009 10.5668 12.2293 10.4077C12.0687 10.2588 11.8663 10.137 11.6278 10.0456C11.4072 9.96105 11.1593 9.91477 10.8902 9.90781C10.8574 9.92469 10.799 9.95692 10.7044 10.0167C10.5119 10.1382 10.29 10.2768 10.0447 10.4285C9.76814 10.5992 9.41186 10.7534 8.98621 10.8865C8.55105 11.0227 8.10723 11.0919 7.66671 11.0919C7.22618 11.0919 6.78224 11.0227 6.34732 10.8866C5.92131 10.7533 5.56515 10.5992 5.28825 10.4282C5.0372 10.2729 4.82151 10.1383 4.62899 10.0167C4.53437 9.95704 4.47597 9.92469 4.44317 9.90781C4.17395 9.91477 3.92607 9.96105 3.70538 10.0456C3.46701 10.137 3.26461 10.2589 3.10403 10.4077C2.93236 10.5667 2.77678 10.7643 2.64156 10.9947C2.49976 11.2362 2.38539 11.487 2.30175 11.7401C2.21432 12.0045 2.1408 12.2962 2.08325 12.6068C2.02497 12.9221 1.98546 13.2185 1.9662 13.4877V13.4879C1.94633 13.7617 1.93633 14.0479 1.93621 14.3387C1.93633 14.8963 2.09898 15.3173 2.43367 15.6257V15.6257Z" fill="#074D63" stroke="#074D63" stroke-width="0.4"/>
</svg>
