<svg width="15" height="15" viewBox="0 0 15 15" fill="none" xmlns="http://www.w3.org/2000/svg">
<path d="M8.34961 3.57422H11.8652C12.1079 3.57422 12.3047 3.37746 12.3047 3.13477C12.3047 2.89207 12.1079 2.69531 11.8652 2.69531H8.34961C8.10691 2.69531 7.91016 2.89207 7.91016 3.13477C7.91016 3.37746 8.10691 3.57422 8.34961 3.57422ZM8.34961 6.21094H11.8652C12.1079 6.21094 12.3047 6.01418 12.3047 5.77148C12.3047 5.52879 12.1079 5.33203 11.8652 5.33203H8.34961C8.10691 5.33203 7.91016 5.52879 7.91016 5.77148C7.91016 6.01418 8.10691 6.21094 8.34961 6.21094ZM1.75781 1.89199V1.37695C1.75781 1.13426 1.56105 0.9375 1.31836 0.9375C1.07566 0.9375 0.878906 1.13426 0.878906 1.37695V1.89199C0.367441 2.0734 0 2.56187 0 3.13477V11.5598C0 12.4787 0.357832 13.3426 1.00764 13.9924C1.09345 14.0782 1.20589 14.1211 1.31836 14.1211C1.43083 14.1211 1.5433 14.0782 1.62908 13.9924C2.27889 13.3426 2.63672 12.4787 2.63672 11.5598V3.13477C2.63672 2.56187 2.26931 2.0734 1.75781 1.89199V1.89199ZM1.75781 11.5598C1.75781 12.0793 1.60415 12.5753 1.31836 12.9957C1.03257 12.5753 0.878906 12.0793 0.878906 11.5598V9.72656H1.75781V11.5598ZM1.75781 8.84766H0.878906V3.13477C0.878906 2.89245 1.07604 2.69531 1.31836 2.69531C1.56067 2.69531 1.75781 2.89245 1.75781 3.13477V8.84766ZM5.84162 8.71893C5.92743 8.80477 6.03987 8.84766 6.15234 8.84766C6.26481 8.84766 6.37729 8.80477 6.46307 8.71893L7.34197 7.84002C7.51359 7.6684 7.51359 7.39017 7.34197 7.21855C7.17038 7.04692 6.89212 7.04692 6.7205 7.21855L6.15234 7.78673L6.02361 7.65803C5.85202 7.48641 5.57376 7.48641 5.40214 7.65803C5.23052 7.82965 5.23052 8.10788 5.40214 8.2795L5.84162 8.71893ZM8.34961 8.84766H11.8652C12.1079 8.84766 12.3047 8.6509 12.3047 8.4082C12.3047 8.16551 12.1079 7.96875 11.8652 7.96875H8.34961C8.10691 7.96875 7.91016 8.16551 7.91016 8.4082C7.91016 8.6509 8.10691 8.84766 8.34961 8.84766ZM13.623 0H3.95508C3.71238 0 3.51562 0.196758 3.51562 0.439453V14.5605C3.51562 14.8032 3.71238 15 3.95508 15H10.1073C10.226 15 10.34 14.9495 10.4182 14.8712C10.4212 14.8683 13.9373 11.3521 13.9341 11.3553C14.0148 11.2745 14.0625 11.1612 14.0625 11.0449V0.439453C14.0625 0.196758 13.8657 0 13.623 0V0ZM10.9186 13.1279L11.3295 11.4844H12.5621L10.9186 13.1279ZM13.1836 10.6055H10.9863C10.7847 10.6055 10.6089 10.7427 10.56 10.9383L9.7643 14.1211H4.39453V0.878906H13.1836V10.6055ZM5.71289 11.4844H8.34961C8.5923 11.4844 8.78906 11.2876 8.78906 11.0449C8.78906 10.8022 8.5923 10.6055 8.34961 10.6055H5.71289C5.4702 10.6055 5.27344 10.8022 5.27344 11.0449C5.27344 11.2876 5.4702 11.4844 5.71289 11.4844ZM5.84162 6.08221C5.92743 6.16805 6.03987 6.21094 6.15234 6.21094C6.26481 6.21094 6.37729 6.16805 6.46307 6.08221L7.34197 5.2033C7.51359 5.03168 7.51359 4.75345 7.34197 4.58183C7.17038 4.41021 6.89212 4.41021 6.7205 4.58183L6.15234 5.15001L6.02361 5.02131C5.85202 4.84969 5.57376 4.84969 5.40214 5.02131C5.23052 5.19293 5.23052 5.47116 5.40214 5.64278L5.84162 6.08221ZM5.84162 3.44549C5.92743 3.53133 6.03987 3.57422 6.15234 3.57422C6.26481 3.57422 6.37729 3.53133 6.46307 3.44549L7.34197 2.56658C7.51359 2.39496 7.51359 2.11673 7.34197 1.94511C7.17038 1.77349 6.89212 1.77349 6.7205 1.94511L6.15234 2.51329L6.02361 2.38459C5.85202 2.21297 5.57376 2.21297 5.40214 2.38459C5.23052 2.55621 5.23052 2.83444 5.40214 3.00606L5.84162 3.44549Z" fill="#6D6D6D"/>
</svg>
