<svg width="14" height="14" viewBox="0 0 14 14" fill="none" xmlns="http://www.w3.org/2000/svg">
<path d="M7 0C3.1402 0 0 3.14007 0 6.99962C0 10.8592 3.1402 13.9993 7 13.9993C10.8598 13.9993 14 10.8592 14 6.99962C14 3.14007 10.8598 0 7 0ZM7 12.7266C3.84198 12.7266 1.27273 10.1575 1.27273 6.99966C1.27273 3.84181 3.84198 1.27273 7 1.27273C10.158 1.27273 12.7273 3.84181 12.7273 6.99962C12.7273 10.1576 10.158 12.7266 7 12.7266Z" fill="#6D6D6D"/>
<path d="M6.99965 5.51514C6.6482 5.51514 6.36328 5.80006 6.36328 6.1515V10.3932C6.36328 10.7446 6.6482 11.0296 6.99965 11.0296C7.35109 11.0296 7.63601 10.7446 7.63601 10.3932V6.1515C7.63601 5.8001 7.35109 5.51514 6.99965 5.51514Z" fill="#6D6D6D"/>
<path d="M6.99965 2.96973C6.83207 2.96973 6.66827 3.03761 6.54952 3.15597C6.43116 3.27433 6.36328 3.43851 6.36328 3.60609C6.36328 3.77367 6.43116 3.93742 6.54952 4.05621C6.66789 4.17458 6.83207 4.24245 6.99965 4.24245C7.16722 4.24245 7.33098 4.17458 7.44972 4.05621C7.56809 3.93742 7.63601 3.77367 7.63601 3.60609C7.63601 3.43851 7.56809 3.27433 7.44972 3.15597C7.33098 3.03756 7.16722 2.96973 6.99965 2.96973Z" fill="#6D6D6D"/>
</svg>
